<svg id="Layer_1" data-name="Layer 1" xmlns="http://www.w3.org/2000/svg" viewBox="0 0 238.56 240.6"><title>Chicago Bulls logo - Brandlogos.net</title><path d="M482.28,356.22c-.84-14.52-7.32-27.6-11.16-35.4l-.48-.84L469,316.62l.36,3.72c.36,5.16,1.56,22.92-3.72,33.12C459,367,439.68,365.7,433.32,365.34H433c-10.44-.72-44.4-1.92-54.84-1.92-13.68.12-28.8,1.2-41,2.16-6,.48-11.16.84-14.64,1-.36,0-.72.12-1.32.12-17,1.56-27.84-3.48-32-15-2.52-7.08-2.52-21.12-2.52-27.84V319l-1.32,2.4a90.45,90.45,0,0,0-11.16,35.4c-1.2,21.6,10.08,29.4,18.6,33.24,9,4.2,18.12,4.8,21.12,5h.12a11.64,11.64,0,0,0,2,.12,13.17,13.17,0,0,1,3,.24c-1.68.36-3.84.72-5.64,1-2,.48-4,.72-4.92,1-2,.48-10.68,2.4-15.24,4.08-3.84,1.32-8.16,3.36-8.28,3.36l-.72.36.6.72s1.44,1.92,2.88,3.48a28.14,28.14,0,0,0,21.6,7.08c8-1,12.48-3,14.16-3.84a82.58,82.58,0,0,0,3.12,9c3.6,9,12,26.4,15.12,32.4,2.52,4.92,5,9.24,6.72,12.12l.6,1.08a7.44,7.44,0,0,1-2.88,3.84c-.24.24-.36.48-.6.6l-.12.24v.36c-.12,1.56-.48,16.8,9.72,27.84l.12.12h.12c5.16,2,11.76,4.08,22.56,4.08s20.16-2.64,23.4-4.2l.12-.12.12-.12c7.08-8.4,10.44-21.24,10.44-25.8v-.24l-.24-.24-.48-.48a10.79,10.79,0,0,1-3.36-5.64c1-1.44,2.64-5,4.08-7.92a27.34,27.34,0,0,1,1.8-3.72c3-6,11.76-25,15.36-33.84,2.16-5.76,3.36-8.52,4-9.72,1.56.84,5.76,2.76,13.68,3.6,10.2,1,19.92-5.76,22.68-9.6.48-.6,1.2-1.44,1.32-1.56l.6-.72-.84-.36c-.12,0-.36-.12-2-.72l-5.64-1.8-5.64-1.92c-1.56-.48-8.52-2-13.44-3.12l-3.84-.84,1.2-.24C452.88,392.46,484.08,387.06,482.28,356.22Z" transform="translate(-264.72 -263.7)"/><path d="M285.36,325c-.36,8-.24,16.8,1.56,24.48a66.1,66.1,0,0,0-5.16-4.92c-1.68,1.8-3.12,3.72-4.8,5.4A103.64,103.64,0,0,1,285.36,325Z" transform="translate(-264.72 -263.7)" style="fill:#ce1141"/><path d="M285.36,325c-.36,8-.24,16.8,1.56,24.48a66.1,66.1,0,0,0-5.16-4.92c-1.68,1.8-3.12,3.72-4.8,5.4A103.64,103.64,0,0,1,285.36,325Z" transform="translate(-264.72 -263.7)" style="fill:none;stroke:#ce1141;stroke-width:0.23999999463558197px"/><path d="M479.16,346.38l.48,2.16-4.2-3c-1.92.84-3.72,2-5.52,2.88a104.93,104.93,0,0,0,1.2-23.88C474.84,331.38,476.88,338.82,479.16,346.38Z" transform="translate(-264.72 -263.7)" style="fill:#ce1141"/><path d="M479.16,346.38l.48,2.16-4.2-3c-1.92.84-3.72,2-5.52,2.88a104.93,104.93,0,0,0,1.2-23.88C474.84,331.38,476.88,338.82,479.16,346.38Z" transform="translate(-264.72 -263.7)" style="fill:none;stroke:#ce1141;stroke-width:0.23999999463558197px"/><path d="M378.36,422.46c4.32,6.72,12.36,8.64,19.8,6.72a36.44,36.44,0,0,0,7.92-2.76,65.41,65.41,0,0,0-3.72,22.8A63.4,63.4,0,0,0,405.6,469c-1.08-.24-2-1.08-3.24-1.56-14.76-7.44-35.52-7.2-50,.48.72-2.28,1.44-4.92,2-7.32,2.16-11.16.6-22.8-3.24-33,7.8,3.24,19.2,4,25.56-3.24A13.72,13.72,0,0,1,378.36,422.46Z" transform="translate(-264.72 -263.7)" style="fill:#ce1141"/><path d="M378.36,422.46c4.32,6.72,12.36,8.64,19.8,6.72a36.44,36.44,0,0,0,7.92-2.76,65.41,65.41,0,0,0-3.72,22.8A63.4,63.4,0,0,0,405.6,469c-1.08-.24-2-1.08-3.24-1.56-14.76-7.44-35.52-7.2-50,.48.72-2.28,1.44-4.92,2-7.32,2.16-11.16.6-22.8-3.24-33,7.8,3.24,19.2,4,25.56-3.24A13.72,13.72,0,0,1,378.36,422.46Z" transform="translate(-264.72 -263.7)" style="fill:none;stroke:#ce1141;stroke-width:0.23999999463558197px"/><path d="M345.48,428c-.36,3.12-1.44,6.72-4.8,7.92-2.76.72-5.16-.84-7-2.76A7,7,0,0,1,332,429.9c4.2,2.76,9.72.6,13.32-2Z" transform="translate(-264.72 -263.7)" style="fill:#ce1141"/><path d="M345.48,428c-.36,3.12-1.44,6.72-4.8,7.92-2.76.72-5.16-.84-7-2.76A7,7,0,0,1,332,429.9c4.2,2.76,9.72.6,13.32-2Z" transform="translate(-264.72 -263.7)" style="fill:none;stroke:#ce1141;stroke-width:0.23999999463558197px"/><path d="M424.56,428.34c-1,2.88-3.48,5.76-6.36,6.36a5.42,5.42,0,0,1-5.52-2.64,7.26,7.26,0,0,1-1.32-3.6C415.08,431.46,421,430.74,424.56,428.34Z" transform="translate(-264.72 -263.7)" style="fill:#ce1141"/><path d="M424.56,428.34c-1,2.88-3.48,5.76-6.36,6.36a5.42,5.42,0,0,1-5.52-2.64,7.26,7.26,0,0,1-1.32-3.6C415.08,431.46,421,430.74,424.56,428.34Z" transform="translate(-264.72 -263.7)" style="fill:none;stroke:#ce1141;stroke-width:0.23999999463558197px"/><path d="M416.4,436.5a10.52,10.52,0,0,0,4.68-.6c-4.2,10.44-9.24,20.52-14.4,30.6-1.8-5-1.32-10.44-1.08-16.08a100.57,100.57,0,0,1,4.32-19.32C411.36,433.5,413.64,436,416.4,436.5Z" transform="translate(-264.72 -263.7)" style="fill:#ce1141"/><path d="M416.4,436.5a10.52,10.52,0,0,0,4.68-.6c-4.2,10.44-9.24,20.52-14.4,30.6-1.8-5-1.32-10.44-1.08-16.08a100.57,100.57,0,0,1,4.32-19.32C411.36,433.5,413.64,436,416.4,436.5Z" transform="translate(-264.72 -263.7)" style="fill:none;stroke:#ce1141;stroke-width:0.23999999463558197px"/><path d="M350.76,466.38v.12c-6.36-9.6-11.16-19.8-15.72-30,2,1.08,5.52,1.8,7.68.36a11.31,11.31,0,0,0,4-6C351.84,441.18,353,454.62,350.76,466.38Z" transform="translate(-264.72 -263.7)" style="fill:#ce1141"/><path d="M350.76,466.38v.12c-6.36-9.6-11.16-19.8-15.72-30,2,1.08,5.52,1.8,7.68.36a11.31,11.31,0,0,0,4-6C351.84,441.18,353,454.62,350.76,466.38Z" transform="translate(-264.72 -263.7)" style="fill:none;stroke:#ce1141;stroke-width:0.23999999463558197px"/><path d="M409.92,474.54a43.76,43.76,0,0,1-10,23.88c-13.08,5.16-30.72,5.64-43.8.12-6.48-7-8.88-16-9.24-25.56,13.92-10.08,35.64-12.36,51.6-5.16C402.48,469.74,406.44,471.66,409.92,474.54Z" transform="translate(-264.72 -263.7)" style="fill:#ce1141"/><path d="M409.92,474.54a43.76,43.76,0,0,1-10,23.88c-13.08,5.16-30.72,5.64-43.8.12-6.48-7-8.88-16-9.24-25.56,13.92-10.08,35.64-12.36,51.6-5.16C402.48,469.74,406.44,471.66,409.92,474.54Z" transform="translate(-264.72 -263.7)" style="fill:none;stroke:#ce1141;stroke-width:0.23999999463558197px"/><path d="M463.8,402.3A118.54,118.54,0,0,0,427,395.46c-1.08-13.32-2.64-21.6-5.28-29.16-6.12-.36-33.24-1.44-43.8-1.44s-37.2,1.68-43.2,2a118.91,118.91,0,0,0-6.6,29.16A152.46,152.46,0,0,0,289,404.34c-1.68.6-2.4,1.2-2.4,1.08a24.86,24.86,0,0,0,19,9.48c3.6.12,10.44-.6,14.76-2.52,1.2-.48,3.6-1.56,3.6-1.56a17,17,0,0,1,1.2,2.52c1.2,3.36,2.76,8.28,3.84,10.32,1.56,3.24,4.08,5.64,8.16,5.76a9.3,9.3,0,0,0,6.84-3.6c-10.56-.6-15-6.24-15.72-14.76-2.52-.36-3.24-.6-3.48-2a5.15,5.15,0,0,1,1.08-4.32c1.2-1.68,3.24-3.24,8.28-1.68a25.48,25.48,0,0,1,7.8,4.8c2.16,2,8.52,8.64,12.36,10.8,4.08,2.4,11.88,4.68,16.92-.36a19.93,19.93,0,0,0,6-11.4,204,204,0,0,1-23.76-2c-2.16-.36-1.2-2.4.48-1.92,0,0,13.8,1.8,23.64,1.92,0-1.2,0-3.12.12-5.4a154.48,154.48,0,0,1-24.72-2.52c-1.8-.48-1.44-2.52.24-2a190.91,190.91,0,0,0,24.48,2.4c0-1.68.12-4.2.12-6.48a164.52,164.52,0,0,1-24.24-2.16c-2-.36-1.56-2.16,0-1.92a214.64,214.64,0,0,0,24.24,1.92v-5.4c0-2,1.8-2.16,1.8-.12v5.4a163.43,163.43,0,0,0,22.8-2.16c2.4-.48,2.16,1.56,1.08,1.68a159.55,159.55,0,0,1-23.88,2.76v6.48c7.32-.24,16-.48,23.28-2.16,2.76-.6,3,1.56.72,1.92a174.88,174.88,0,0,1-23.88,2.4c0,1.8,0,4.08.12,5.4a222.14,222.14,0,0,0,24.84-2.16c1.92-.36,2.28,1.68.24,2s-15.84,2-24.72,2.28c1,3,1.08,7.32,5.4,11,4.08,3.6,11.16,3.24,16.08.36,3.84-2.28,10-8.88,12.12-10.92,1.8-1.56,6.12-5.52,11.88-5.4s5.76,3,6.12,3.84.48,2.52-.84,3.36c-1,.6-1.92.36-2.88.84-.72,4.68-2.16,10-5.88,12.72-4,3-10.08,3.36-10.08,3.36s.84,1,1.08,1.2a8,8,0,0,0,5.52,1.44,12.43,12.43,0,0,0,6.72-3.48c1.92-2.52,3.72-7.68,5-11,.48-1.2,1.68-3.48,2-4.44,1.2.48,1.68.84,3.84,1.68a37.61,37.61,0,0,0,13.8,2.4c5.88-.12,12.6-3.72,16.56-7.44.6-.6,2-2.28,2-2.28S464.88,402.66,463.8,402.3Z" transform="translate(-264.72 -263.7)" style="fill:#ce1141"/><path d="M463.8,402.3A118.54,118.54,0,0,0,427,395.46c-1.08-13.32-2.64-21.6-5.28-29.16-6.12-.36-33.24-1.44-43.8-1.44s-37.2,1.68-43.2,2a118.91,118.91,0,0,0-6.6,29.16A152.46,152.46,0,0,0,289,404.34c-1.68.6-2.4,1.2-2.4,1.08a24.86,24.86,0,0,0,19,9.48c3.6.12,10.44-.6,14.76-2.52,1.2-.48,3.6-1.56,3.6-1.56a17,17,0,0,1,1.2,2.52c1.2,3.36,2.76,8.28,3.84,10.32,1.56,3.24,4.08,5.64,8.16,5.76a9.3,9.3,0,0,0,6.84-3.6c-10.56-.6-15-6.24-15.72-14.76-2.52-.36-3.24-.6-3.48-2a5.15,5.15,0,0,1,1.08-4.32c1.2-1.68,3.24-3.24,8.28-1.68a25.48,25.48,0,0,1,7.8,4.8c2.16,2,8.52,8.64,12.36,10.8,4.08,2.4,11.88,4.68,16.92-.36a19.93,19.93,0,0,0,6-11.4,204,204,0,0,1-23.76-2c-2.16-.36-1.2-2.4.48-1.92,0,0,13.8,1.8,23.64,1.92,0-1.2,0-3.12.12-5.4a154.48,154.48,0,0,1-24.72-2.52c-1.8-.48-1.44-2.52.24-2a190.91,190.91,0,0,0,24.48,2.4c0-1.68.12-4.2.12-6.48a164.52,164.52,0,0,1-24.24-2.16c-2-.36-1.56-2.16,0-1.92a214.64,214.64,0,0,0,24.24,1.92v-5.4c0-2,1.8-2.16,1.8-.12v5.4a163.43,163.43,0,0,0,22.8-2.16c2.4-.48,2.16,1.56,1.08,1.68a159.55,159.55,0,0,1-23.88,2.76v6.48c7.32-.24,16-.48,23.28-2.16,2.76-.6,3,1.56.72,1.92a174.88,174.88,0,0,1-23.88,2.4c0,1.8,0,4.08.12,5.4a222.14,222.14,0,0,0,24.84-2.16c1.92-.36,2.28,1.68.24,2s-15.84,2-24.72,2.28c1,3,1.08,7.32,5.4,11,4.08,3.6,11.16,3.24,16.08.36,3.84-2.28,10-8.88,12.12-10.92,1.8-1.56,6.12-5.52,11.88-5.4s5.76,3,6.12,3.84.48,2.52-.84,3.36c-1,.6-1.92.36-2.88.84-.72,4.68-2.16,10-5.88,12.72-4,3-10.08,3.36-10.08,3.36s.84,1,1.08,1.2a8,8,0,0,0,5.52,1.44,12.43,12.43,0,0,0,6.72-3.48c1.92-2.52,3.72-7.68,5-11,.48-1.2,1.68-3.48,2-4.44,1.2.48,1.68.84,3.84,1.68a37.61,37.61,0,0,0,13.8,2.4c5.88-.12,12.6-3.72,16.56-7.44.6-.6,2-2.28,2-2.28S464.88,402.66,463.8,402.3Z" transform="translate(-264.72 -263.7)" style="fill:none;stroke:#ce1141;stroke-width:0.23999999463558197px"/><path d="M400.56,476c1.08,2,.24,4.32-1,6.12a8.81,8.81,0,0,1-9.12,3,9.42,9.42,0,0,1-5-3.84c-.48,1.68.72,2.88.6,4.44a.63.63,0,0,1-.88.18l-.08-.06c-1.92-2.52-2.64-6.36-1-9.12,2-3.84,6-5.4,10.2-5A8.36,8.36,0,0,1,400.56,476Z" transform="translate(-264.72 -263.7)"/><path d="M400.56,476c1.08,2,.24,4.32-1,6.12a8.81,8.81,0,0,1-9.12,3,9.42,9.42,0,0,1-5-3.84c-.48,1.68.72,2.88.6,4.44a.63.63,0,0,1-.88.18l-.08-.06c-1.92-2.52-2.64-6.36-1-9.12,2-3.84,6-5.4,10.2-5A8.36,8.36,0,0,1,400.56,476Z" transform="translate(-264.72 -263.7)" style="fill:none;stroke:#ce1141;stroke-width:0.23999999463558197px"/><path d="M371.64,477.3c1.68,2.76.84,6.36-.72,9-.24.36-.6.72-1.08.36-.72-.84.24-1.56.36-2.4a4.41,4.41,0,0,0,.12-2.16,9.38,9.38,0,0,1-9.36,4,8.66,8.66,0,0,1-6-5.16,5.85,5.85,0,0,1,.72-4.92c2.52-3.36,7.08-4.08,10.8-2.88A9.36,9.36,0,0,1,371.64,477.3Z" transform="translate(-264.72 -263.7)"/><path d="M371.64,477.3c1.68,2.76.84,6.36-.72,9-.24.36-.6.72-1.08.36-.72-.84.24-1.56.36-2.4a4.41,4.41,0,0,0,.12-2.16,9.38,9.38,0,0,1-9.36,4,8.66,8.66,0,0,1-6-5.16,5.85,5.85,0,0,1,.72-4.92c2.52-3.36,7.08-4.08,10.8-2.88A9.36,9.36,0,0,1,371.64,477.3Z" transform="translate(-264.72 -263.7)" style="fill:none;stroke:#ce1141;stroke-width:0.23999999463558197px"/><path d="M400.32,495.42c-.24.6-.36.6-.84,1.2-1.32-.36-2.76-.84-4.2-1.32-12-4.68-27.24-3.36-38.52,1.32a1.75,1.75,0,0,1-.72-1.08C369.12,489.66,387.12,488.94,400.32,495.42Z" transform="translate(-264.72 -263.7)"/><path d="M400.32,495.42c-.24.6-.36.6-.84,1.2-1.32-.36-2.76-.84-4.2-1.32-12-4.68-27.24-3.36-38.52,1.32a1.75,1.75,0,0,1-.72-1.08C369.12,489.66,387.12,488.94,400.32,495.42Z" transform="translate(-264.72 -263.7)" style="fill:none;stroke:#ce1141;stroke-width:0.23999999463558197px"/><path d="M402.48,431.7c-1.92,9.48-7.92,20.4-18,23.16-7.92,2-16.8.36-22.2-6.24a30.29,30.29,0,0,1-6.36-16.56,2.16,2.16,0,0,1,1.2-.24c.84,9,5.52,18.84,14.52,21.6a21.06,21.06,0,0,0,22.56-6.6,39.26,39.26,0,0,0,7.08-15.6A1.54,1.54,0,0,1,402.48,431.7Z" transform="translate(-264.72 -263.7)"/><path d="M402.48,431.7c-1.92,9.48-7.92,20.4-18,23.16-7.92,2-16.8.36-22.2-6.24a30.29,30.29,0,0,1-6.36-16.56,2.16,2.16,0,0,1,1.2-.24c.84,9,5.52,18.84,14.52,21.6a21.06,21.06,0,0,0,22.56-6.6,39.26,39.26,0,0,0,7.08-15.6A1.54,1.54,0,0,1,402.48,431.7Z" transform="translate(-264.72 -263.7)" style="fill:none;stroke:#ce1141;stroke-width:0.23999999463558197px"/><path d="M284.52,266.1a10.33,10.33,0,0,0-6.84-2.4c-2.76.12-13,3.6-13,18.72s9.24,20.16,14.76,20.16,11.16-4.2,13-11.64c.24-1.08.12-1.2-1-1.68l-3.6-1.44c-.84-.24-1-.24-1.44,1.2-.36,1.08-1.92,5.4-5.64,5.4s-5.28-5.4-5.28-11.16,1-11,5.52-11,5.52,4.8,5.88,6.6c.12.84.24.84,1.08.84h3.36c.72,0,.72,0,.72-1.56V265.62c0-.72-.12-.72-1.56-.72h-3c-.6,0-.6.12-1,1C286.2,266.34,285.48,267.06,284.52,266.1Z" transform="translate(-264.72 -263.7)"/><path d="M421.44,272.22l7,22c.36,1,.36,1.08,1,1.08h1c1.2,0,1.2,0,1.2,1v4.2c0,1.44-.12,1.44-.84,1.44h-13.8c-1.2,0-1.2-.12-1.2-1v-4.32c0-1.32.12-1.32,1.08-1.32h1.32c.72,0,.72-.24.48-1.08l-1.08-3.36c-.36-.6-.48-.6-1.32-.6h-8.4l1.8-5h5.16c.84,0,1-.12.72-.72l-3.12-9.72c-.12-.6-.36-.6-.48-.12l-3.12,9.84c-.24.72-.24.72,1,.72l-1.8,5c-1,0-1,0-1.2.6l-1.08,3.36c-.24,1-.24,1.08.36,1.08h1.32c1.08,0,1.08.12,1.08,1.32v4.32c0,.84-.12,1-1.2,1h-9.48c-.84,0-.84-.12-.84-1.44v-4.2c0-.84.12-1,1.08-1h1a.84.84,0,0,0,1-.7v0l7.08-22.2c.24-.6.24-.72-.84-.72h-1.32c-1.08,0-1.08-.12-1.08-1v-4.44c0-1.32,0-1.32,1.56-1.32H423.6c1.08,0,1.08.12,1.08,1.32v4.2c0,1,0,1-1.32,1h-1.44C421.2,271.26,421.2,271.5,421.44,272.22Z" transform="translate(-264.72 -263.7)"/><path d="M454.68,288.9h2.4c1.08,0,1.08.12,1.08.72,0,2.16-1.56,4.8-5.52,4.8-3.72,0-5.28-5.4-5.28-11.16s1-11,5.52-11a5.89,5.89,0,0,1,5.88,4.44c.12.84.12.84,1.08.84h3.36c.72,0,.72,0,.72-1.68v-10.2c0-.72-.12-.72-1.56-.72h-3c-.6,0-.6,0-1.08,1-.12.48-1,1.2-1.92.24a10.56,10.56,0,0,0-6.84-2.4c-2.76.12-13,3.6-13,18.72s9.12,20.16,14.76,20.16c8.4,0,14.88-6.36,14.88-18.36,0-1.2-.12-1.32-1.8-1.32h-10c-1,0-1.08.12-1.08,1.2v4C453.36,288.9,453.48,288.9,454.68,288.9Z" transform="translate(-264.72 -263.7)"/><path d="M487,264.66c-9.12,0-16.44,8.64-16.44,19.08s7.32,19,16.44,19,16.32-8.4,16.32-19S496,264.66,487,264.66l-.12,6.84c3.36,0,6.12,5.52,6.12,12.24S490.32,296,486.84,296s-6.12-5.52-6.12-12.24,2.76-12.24,6.12-12.24Z" transform="translate(-264.72 -263.7)"/><path d="M302.76,294.42v-22c0-.84-.12-1-1-1h-1.08c-1.08,0-1.08-.12-1.08-.84v-4.8c0-.84.12-1,1.32-1h13c1,0,1.08,0,1.08,1v4.44c0,1-.12,1-1.08,1h-.72c-.6,0-.72,0-.6.84v6.36c0,1.56,0,1.68,1.32,1.68h7c1.32,0,1.32-.12,1.32-1.68V272.1c0-.84-.12-.84-.6-.84h-.72c-1.08,0-1.2,0-1.2-1v-4.44c0-1,.24-1,1.2-1h12.84c1.44,0,1.44,0,1.44,1v4.8c0,.84-.12.84-1.2.84h-1.08c-.84,0-.84.12-.84,1v22c0,.84.12.84,1.08.84h1.08c1,0,1,0,1,1.32v4.32c0,.72,0,1-1.2,1H320.28c-.84,0-.84,0-.84-1.44v-4.2c-.12-1,0-1,1.08-1h.72c.84,0,.84-.12.84-1v-6.84c0-1.56-.12-1.68-1.2-1.68h-7c-1.08,0-1.2.12-1.2,1.68v6.84c0,1,0,1,.84,1h.72c1.08,0,1.08,0,1.08,1v4.2c0,1.44,0,1.44-.84,1.44h-13.8c-1.08,0-1.08,0-1.08-1v-4.32c0-1.32.12-1.32.84-1.32h1.2C302.76,295.26,302.76,295.26,302.76,294.42Z" transform="translate(-264.72 -263.7)"/><path d="M344.76,272.22c0-.84,0-.84-.6-.84H343c-1.2,0-1.2-.12-1.2-1v-4.56c0-1,.12-1,1.08-1h12.84c1.44,0,1.44,0,1.44,1v4.8c0,.84-.12.84-1.2.84h-.6c-.84,0-.84.12-.84,1v22c0,.84.12.84,1.08.84h1c.84,0,.84,0,.84,1.32v4.32c0,.72,0,1-1.08,1H342.6c-.84,0-.84,0-.84-1.44v-4.2c-.12-1,0-1,1.08-1h1.08c.84,0,.84,0,.84-1Z" transform="translate(-264.72 -263.7)"/><path d="M382.32,266.1a10.56,10.56,0,0,0-6.84-2.4c-2.76.12-13,3.6-13,18.72s9.12,20.16,14.76,20.16,11.16-4.2,13-11.64c.24-1.08.12-1.2-1-1.68l-3.6-1.44c-.84-.24-1-.24-1.44,1.2-.36,1.08-1.92,5.4-5.64,5.4s-5.28-5.4-5.28-11.16,1-11,5.52-11,5.52,4.8,5.88,6.6c.12.84.24.84,1.08.84h3.36c.72,0,.72,0,.72-1.56V265.62c0-.72-.12-.72-1.56-.72h-3c-.6,0-.6.12-1,1C384,266.34,383.28,267.06,382.32,266.1Z" transform="translate(-264.72 -263.7)"/><path d="M300.6,319.26V341.1c0,.72-.12.72-.84.72h-1.2c-1,0-1.08.24-1.08,1.2v4.56c0,.84.24.84,1.2.84h20l-6.84-7c-1.32,0-1.44,0-1.44-1.44v-6.24c0-1.2.12-1.32,1.44-1.32v-5.64c-1.44,0-1.44-.12-1.44-1.32v-6.36c0-1.32.12-1.32,1.32-1.32s6.6.12,6.6,4.68-4.8,4.32-6.48,4.32v5.76c1.44,0,6.48.12,6.48,4.68s-4.8,4.44-6.48,4.44l6.84,7c5,0,8.76-4.56,8.76-9.72s-3.24-7.2-5.88-9.12c1.92-1.44,5.16-3.6,5.16-8.76,0-5.76-5.64-9.36-9.12-9.36H299.16c-1.56,0-1.68,0-1.68,1.2v4.68c0,.72.12.84,1.2.84h1.2C300.6,318.18,300.6,318.3,300.6,319.26Z" transform="translate(-264.72 -263.7)"/><path d="M361.92,318.9v18.84c0,4.8-2.52,11.88-12,11.88s-14.16-7.08-14.16-11.88V318.9c0-.84-.12-.84-.84-.84h-1.08c-1.08,0-1.08,0-1.08-1v-4.2c0-1.44.12-1.44,1.32-1.44h12.84c1,0,1.2,0,1.2,1.2v4.2c0,1-.12,1-1.44,1H345.6c-.6,0-.72.12-.72.84V337a5.55,5.55,0,0,0,5.64,5.4A5.17,5.17,0,0,0,356,337V318.9c0-1.08-.12-1.08-1-1.08h-1c-1.08,0-1.2,0-1.2-1v-4.2c0-1.08,0-1.2,1.08-1.2h9.48c1.68,0,1.68,0,1.68,1.2v4.44c0,1,0,1-1.2,1h-1.2C361.92,318.18,361.92,318.18,361.92,318.9Z" transform="translate(-264.72 -263.7)"/><path d="M406.68,341.82h-1.32c-.84,0-1,.24-1,1.44v4.32c0,.84.12.84,1.08.84h23.64c1.08,0,1.2,0,1.2-1.32V336.42c0-1-.12-1-1.2-1h-3.36c-1.08,0-1.2,0-1.2,1.32v3.72c0,1.44-.12,1.56-1.08,1.56H418.2c-1.56,0-1.68-.24-1.68-1.2V319.5c0-1.44,0-1.44.84-1.44h1.32c1.08,0,1.08-.12,1.08-1v-4.2c0-1.2,0-1.32-1.2-1.32H406c-1.68,0-1.68.12-1.68,1.32v4.32c0,1,.12,1.08,1.2,1.08h1.08c.84,0,.84,0,.84,1.32v21.24C407.52,341.82,407.4,341.82,406.68,341.82Z" transform="translate(-264.72 -263.7)"/><path d="M461.52,338.22c0,7.8-7.44,11.16-10.56,11.16a11.83,11.83,0,0,1-6.84-2.4c-1-1-2,.12-2.4.6-.48.84-.6,1-1,1H439.2c-1.56,0-1.44,0-1.44-.84V337.5c0-1.68,0-1.68.6-1.68h2.4c.84,0,.84.12,1.08.84a7.17,7.17,0,0,0,6.72,5c1.8,0,3.24-.48,3.24-2,0-3.48-2-4.32-5.64-6.24s-9-4-9-11.88a11,11,0,0,1,10.32-11,10.5,10.5,0,0,1,6.48,2.4,1.56,1.56,0,0,0,2.4-.6c.6-1,.6-1,1.08-1H459c1.44,0,1.56,0,1.56.84v10.2c0,1.56,0,1.68-.72,1.68h-2.28c-1,0-1-.12-1.2-.84a7.68,7.68,0,0,0-7.08-5,2.21,2.21,0,0,0-2.4,2.4c0,2.16,2.4,4.08,6.48,6.12S461.52,331.62,461.52,338.22Z" transform="translate(-264.72 -263.7)"/><path d="M373.8,341.82h-1.32c-.84,0-1,.24-1,1.44v4.32c0,.84.12.84,1.2.84h23.64c1,0,1.08,0,1.08-1.32V336.42c0-1-.12-1-1.08-1h-3.48c-1.08,0-1.2,0-1.2,1.32v3.72c0,1.44-.12,1.56-1.08,1.56h-5.28c-1.56,0-1.56-.24-1.56-1.2V319.5c0-1.44,0-1.44.72-1.44h1.32c1.08,0,1.08-.12,1.08-1v-4.2c0-1.2,0-1.32-1.2-1.32h-12.6c-1.56,0-1.56.12-1.56,1.32v4.32c0,1,0,1.08,1.08,1.08h1.08c.84,0,.84,0,.84,1.32v21.24C374.64,341.82,374.52,341.82,373.8,341.82Z" transform="translate(-264.72 -263.7)"/><path d="M289,355.62c5.16,10,15.6,13.2,26.28,12.6,5.88,0,11.64-.6,17.52-1v.36a126.46,126.46,0,0,0-6.24,25.8c-15.36.6-31.08-.72-42.36-10.92-7.8-7.8-9.72-18.6-8-29.28,1.8-2.16,3.84-4,5.64-6.12C284.28,349.86,288.36,352,289,355.62Z" transform="translate(-264.72 -263.7)" style="fill:#fff"/><path d="M480.12,351.18c.36,1.56.36,3,.6,4.68.72,11.76-4.44,22.68-14.52,28.68-11,6.72-23.76,8.88-37.32,9.36-.24-1.2-.36-2.88-.6-4.2a147.91,147.91,0,0,0-4.68-23c14.52-.24,32.16,3.6,41.76-9.72,1.2-1.92,2.52-3.48,3.6-5.52,2.16-1,4.2-2.4,6.36-3.48C477.12,348.78,478.32,350.22,480.12,351.18Z" transform="translate(-264.72 -263.7)" style="fill:#fff"/><path d="M425,411.06c.12,4.56-1.44,9.24-5.52,11.4a12.2,12.2,0,0,1-6.24,1.32,4.86,4.86,0,0,1,0-1.32c3.24,0,6.48-1.2,8.28-3.84a14.43,14.43,0,0,0,1.68-6.84A4.06,4.06,0,0,1,425,411.06Z" transform="translate(-264.72 -263.7)" style="fill:#fff"/><path d="M343.2,423.3a3.74,3.74,0,0,1-2,0,10.58,10.58,0,0,1-10.59-10.56q0-.42,0-.84a3,3,0,0,1,2,0c0,4.2,1.68,9.72,10.32,9.72C343.56,422.58,343,422.7,343.2,423.3Z" transform="translate(-264.72 -263.7)" style="fill:#fff"/></svg>