<svg xmlns="http://www.w3.org/2000/svg" viewBox="0 0 239.15 350.2"><title>Cleveland Cavaliers logo</title><path d="M505,680.66c-1.14-.62-28.36-16.41-55.48-48.31-25.14-29.5-55.06-79.27-55.06-148.14V468.63c.1-14.34.62-42.39,1.77-61,.21-3.84.52-7.17.73-9.77l.62-6,4.78-3.74A110.79,110.79,0,0,1,420,377.31c5-2.6,10.7-5.19,16.93-7.9,32.1-15.27,70.85-28.67,71.16-28.88l3.74-1.35,3.74,1.25c.42.1,43.74,15.06,76.77,31.27a193.27,193.27,0,0,1,21,10.8,93.71,93.71,0,0,1,7.9,5.4l4.78,3.74.62,6c.1,1.25.21,2.7.42,4.36,1.35,17.76,2.08,50.18,2.18,66.49v15.69c0,68.88-29.92,118.53-55.06,148.14-27.22,32-54.33,47.68-55.48,48.31l-7,3.95Z" transform="translate(-392.43 -336.9)" style="fill:#ffb81c"/><path d="M511.9,341.57,513,342l1.87.62c.42.1,43.84,15.06,76.56,31.17a180.38,180.38,0,0,1,20.78,10.7,84.36,84.36,0,0,1,7.79,5.3l2.8,2.18,1.25.93.21,1.56.31,3.53c.1,1.25.21,2.6.42,4.26,1.35,17.66,2.08,50.07,2.18,66.28v15.58c0,68.25-29.61,117.39-54.54,146.69C545.76,662.38,519,678,517.82,678.58l-4.05,2.29-1.77,1-1.77-1-4.05-2.29c-1.14-.62-27.95-16.21-54.85-47.79-24.83-29.3-54.54-78.43-54.54-146.69V468.42c.1-14.34.62-42.39,1.77-60.88.21-3.84.52-7.06.73-9.66l.31-3.53.21-1.56,1.25-.93,2.8-2.18a114.84,114.84,0,0,1,17.25-10.6c4.88-2.6,10.6-5.19,16.83-7.79,32-15.17,70.64-28.67,71.06-28.78l1.87-.62,1-.31m0-4.67-1.45.52-1.14.42-1.87.62c-.31.1-39.37,13.71-71.47,29-6.23,2.6-11.95,5.3-16.93,7.9a129.2,129.2,0,0,0-17.87,11l-2.8,2.18-1.25.93-1.45,1.14-.21,1.87-.21,1.56-.31,3.53c-.31,2.7-.52,6-.73,9.87-1.14,18.7-1.66,46.85-1.77,61.09v4.78h0v10.91c0,69.5,30.23,119.68,55.58,149.49,27.43,32.2,54.85,48.1,56,48.83l4.05,2.29,1.77,1L512,687.1l2.18-1.25,1.77-1,4.05-2.29c1.14-.62,28.57-16.52,56-48.83,25.35-29.82,55.58-80,55.58-149.49V468.52c-.1-16.31-.83-48.83-2.18-66.59-.1-1.77-.31-3.12-.42-4.36l-.31-3.53-.21-1.56-.21-1.87-1.45-1.14-1.25-.93-2.8-2.18a91.18,91.18,0,0,0-8.1-5.61,198.6,198.6,0,0,0-21.3-11c-32.52-16-75.11-30.65-76.88-31.27l-1.87-.62-1.14-.42Z" transform="translate(-392.43 -336.9)" style="fill:#6f263d"/><path d="M623.47,474.45v9.87c0,67.11-29.19,115.52-53.71,144.3C543.27,659.78,517,675,515.84,675.67L511.79,678l-4.05-2.29c-1.14-.62-27.43-15.89-53.92-47.06-24.41-28.78-53.61-77.19-53.61-144.3V468.73c.1-14.23.62-42.18,1.77-60.67.21-3.74.52-7,.73-9.56L403,395l2.8-2.18a111.58,111.58,0,0,1,16.62-10.28c4.88-2.49,10.49-5.09,16.62-7.79,31.69-15.06,70.33-28.57,70.75-28.67l1.87-.62,1.87.62c.42.1,43.53,15,76.15,31.06a183.2,183.2,0,0,1,20.47,10.6,77.73,77.73,0,0,1,7.48,5.09l2.8,2.18.31,3.53c.1,1.25.21,2.7.42,4.26,1.35,17.56,2.08,49.87,2.18,66.07v5.61Z" transform="translate(-392.43 -336.9)"/><path d="M525.61,537.19c-.21.42,46.23-26.7,46.23-26.7v-9.25L569.55,499c-12.47-11.84-31.06-11.95-50-6.86V395.28c0-6.34.1-12.47-.42-18.08A46.63,46.63,0,0,0,515,360.79l-3.12-6.44-3,6.54a54.75,54.75,0,0,0-4.26,17c-.52,5.71-.52,11.84-.62,18.18l-.42,101.39c-19.43,8-37.3,19.63-46.85,27.53l-10.49,16.21,13-3.22c-19.95,25.14-12.88,41.55-12.05,43.22,2.08,5.92,7,10.7,14.75,13.82,5.92,2.39,12.67,2.7,18.39,2.39a88.41,88.41,0,0,0,22.34-4.36v3.22a32.39,32.39,0,0,0-14.54,17.25,30.5,30.5,0,0,0-1.87,9.25c0,.52,0,2.29-.21,4.78a43.81,43.81,0,0,1-1.35,8.1l-.52,1.66-1.66,4.05c.21.73,4.78-.83,7-1.66a11.87,11.87,0,0,0,1.45-.62,21.92,21.92,0,0,0,4.36-3.32,41.6,41.6,0,0,0,2.91-3.32c.83-1,1.56-2.08,2.18-3,.93-1.25,1.77-2.49,2.6-3.74l.1,10.8v9a17.75,17.75,0,0,0-1.14,1.77c-.93,1.77-3.32,7.58-3.53,10.8-.1.73,2.18.62,5.51.52a16.87,16.87,0,0,0,1.87-.21,40.42,40.42,0,0,0,5.61-1.25c3.74-1.14,9.66-3.84,10.49-9.77l.31-2.08-.62-.42c7.9-7,10.08-14.54,9.77-20.78a29.64,29.64,0,0,0-.93-5.82l2.8.52,3.32.62.62-3.32c2-11.43-4.47-21-17.45-22.85v-6.65a154.1,154.1,0,0,0,34.07-22.13l.42-.42,3.74-19-7.38,4.05c-11.95,5.19-22.75,9.35-30.85,12.26V518.28a52.75,52.75,0,0,1,6.86-3.43c6-2.6,10-3.53,11.84-3.32a46.13,46.13,0,0,1-2.49,5.82c-.21-.1-9.87,19-10.28,19.84m-25.76-3.32c1-1.14,2.29-2.29,3.53-3.43l-.1,15.06h0l-.21,21.4c-12.57,3.84-18.49,4.47-22.85,3.43l-.52-.1a2.18,2.18,0,0,1-1.45-1.87c-.21-8.52,14.23-26.59,21.61-34.49" transform="translate(-392.43 -336.9)" style="fill:#ffb81c"/><path d="M569.14,508.94l-.1-6-30.44,18.6c-.21.52-4.16,8.21-4.57,8.62Z" transform="translate(-392.43 -336.9)" style="fill:#041e42"/><path d="M454.55,536.15l10.8-2.7c2.08-2.49,4.16-4.67,6-6.54-3.84.83-8,1.87-12.15,2.8-.73,1-4.16,5.82-4.67,6.44" transform="translate(-392.43 -336.9)" style="fill:#041e42"/><path d="M516.47,579c-1.56.73-3.22,1.45-4.78,2.18-1,.42-2.08.93-3,1.35-.73.31-1.45.52-2.08.83-9.66,3.74-19.43,6.23-28.46,6.65-5.61.31-11.74-.1-16.93-2.18a24,24,0,0,1-10.39-7.27c1.66,4.88,5.61,8.93,12.78,11.84,5.3,2.08,11.32,2.39,16.93,2.18a90.11,90.11,0,0,0,26-5.71c.73-.21,1.45-.52,2.08-.73l3.12-1.25c1.56-.62,3.22-1.35,4.78-2.08a151.57,151.57,0,0,0,35.22-22.54l1.77-8.41c-9.56,9.14-22.85,18.28-37,25.14" transform="translate(-392.43 -336.9)" style="fill:#041e42"/><path d="M516.47,596.41v-8.1c-1.56.73-3.22,1.35-4.78,2.08v8.41c0,2-3.22,2.39-3.12.83v-8a17.91,17.91,0,0,1-2.18.73l-.1,6.34-.42.31a28.66,28.66,0,0,0-14.23,15.89c0,.1-.1.21-.1.31a27.49,27.49,0,0,0-1.66,8.31A52.59,52.59,0,0,1,488.11,637s1.66-.31,4.88-3.32a57.34,57.34,0,0,0,4.67-5.82c2.91-4.05,5.3-8.1,8.73-9.87v3.64c0,6.86.1,25.45.1,25.56a15.85,15.85,0,0,0-3.32,8.52c0,.21,14.44-.83,15.48-8.31,0,0-2.8-1.87-2.7-1.87,20.36-14.13,9-31.06,9-31.06,4.88.73,7.69,1.14,8.93,1.45,1.87-10.49-4.26-18.91-17.45-19.53M511,645.55c0,1.25-2.6,1.25-2.6.31l.1-29.19a9.56,9.56,0,0,1,2.7-1.14Zm3.43-3c6.34-15.27,1.66-26.49,1.77-26.7,7.9,1,10.39,18.08-1.77,26.7m7.9-5.92c3-6.34,3.84-17.45-3-22.34h2.39c6.75,5.61,3.74,19.84.62,22.34m9.25-23.89c-11.32-3.12-24.62-.31-30.75,7-2.49,3-4.78,7.48-9.14,11.95a61.33,61.33,0,0,0,1-9.25c.73-8.73,5.3-16.21,14.44-20.57a2,2,0,0,0,.31,1,3,3,0,0,0,2,1.25c.83.1-.52-.21,0,0,.1,0,.31.1.42.1h1.56a.62.62,0,0,0,.42-.1h.1c.1,0,.21-.1.42-.1h0c.31-.1.52-.21.83-.31a3.58,3.58,0,0,0,2.08-1.45h0a.79.79,0,0,0,.21-.42c3.32.73,6.13,2.39,7.38,4.36-5.92-.31-14.44,1.66-21.61,9.87a32.34,32.34,0,0,1,28-5.92c.21-4.26-5.61-8.83-8.83-10.7,6,2.08,12.26,7.17,11.12,13.3" transform="translate(-392.43 -336.9)" style="fill:#041e42"/><path d="M516.47,566.38c-1.77.62-3.43,1.14-4.78,1.66-1.14.42-2.18.73-3,1a14.13,14.13,0,0,1-2.08.62l-1.14.31c-53.5,16.62-36.36-18.08-11.95-44.15a111.47,111.47,0,0,1,9.77-8.83l.1-15.38a195.18,195.18,0,0,0-44.15,26.18c6.13-1.66,12.36-3,18.49-4.47-53.19,50.8-22.34,77.71,28.57,57.35.73-.31,1.35-.62,2.08-.93,1-.42,2-.83,3-1.35,1.56-.73,3.22-1.45,4.78-2.29a179.12,179.12,0,0,0,35.74-23.79C537.87,558.7,525.09,563.37,516.47,566.38Z" transform="translate(-392.43 -336.9)" style="fill:#6f263d"/><path d="M567.48,501.56c-11.64-11.12-29.61-10.91-47.89-5.71v10.8c14-6.86,30.33-9,19.43,12.36Z" transform="translate(-392.43 -336.9)" style="fill:#6f263d"/><path d="M523,507.38c-1,.42-2.18,1-3.43,1.56v5.82a50.55,50.55,0,0,1,5.82-2.91c6.34-2.7,11.74-4.36,14.75-3.43C540.57,501.46,532.88,503.22,523,507.38Z" transform="translate(-392.43 -336.9)" style="fill:#041e42"/><path d="M503.38,519.74a98.38,98.38,0,0,0-8.21,7.58c-6.86,7.38-22.75,26.7-22.54,36.78a7.4,7.4,0,0,0,2.49,5.71c0-.42-.1-.83-.1-1.25-.21-10.08,15.69-29.4,22.54-36.78,1.66-1.77,3.64-3.64,5.71-5.51Z" transform="translate(-392.43 -336.9)" style="fill:#041e42"/><path d="M512.31,362.56c-4.57,10.08-4.47,21.4-4.57,33.87l-.31,91.84h0L507,530.75h0l-.1,12.15h0l-.21,23.17a17.35,17.35,0,0,1,2.08-.62l.1-24.1h0l.1-19.53v-8.93l.1-13.4.21-86.85.1-33.24c.52.93,2.39,4.67,2.49,17.66l-.1,101.39v40.41h0l-.1,25.56c1.45-.52,3-1,4.78-1.66V534.91h0V488.16h0V395.49C516.57,383,516.88,371.7,512.31,362.56Z" transform="translate(-392.43 -336.9)" style="fill:#041e42"/><path d="M618.69,503S528.93,451.9,404,503c-.73-11.32,7.48-108.15,7.48-108.15H614.74Z" transform="translate(-392.43 -336.9)"/><path d="M579.94,430.81h-13.3c.21,1.14.31,1.77.52,2.91v14.54c0,9.66,0,19.43.1,29.09,2.7.21,4.16.31,6.86.62.42,0,.62.1.93.1v-18.7c.83-.52,1.25-.73,2.08-1.25,2,3,2.91,4.57,4.88,7.69v13c3.12.31,4.67.52,7.79.83V463.43c-2.18-3-4.26-6-6.44-9,2.6-1.66,3.84-2.49,6.44-4.16V438.09c-2.7-2.91-4.16-4.26-6.86-7.06h-3Zm-4.78,18.7v-10.7h.93c2,0,2.91,0,4.88.1a8.43,8.43,0,0,1,.93,1V447c-2.7,1.87-4.16,2.8-6.86,4.67a17.68,17.68,0,0,0,.1-2.18" transform="translate(-392.43 -336.9)" style="fill:#fff"/><path d="M563.84,438.5v-7.69H545.66c.21,1.14.31,1.66.52,2.8,0,14.13.1,28.26.1,42.39,5.92.31,11.74.73,17.66,1.14v-7.69l-9.77-.52V455.12c3.12.1,4.67.21,7.79.31v-6.75c-3.12-.1-4.67-.1-7.79-.21v-10c3.74-.1,5.71,0,9.66,0" transform="translate(-392.43 -336.9)" style="fill:#fff"/><path d="M533,430.81c.21,1.14.31,1.66.52,2.8v41.87c3.12.1,4.67.1,7.9.31V433.72a26.1,26.1,0,0,0,.42-2.8H533Z" transform="translate(-392.43 -336.9)" style="fill:#fff"/><path d="M460.37,477.15c-2.29-15.48-4.57-31-6.75-46.33H440.84c.21,1.25.31,1.77.52,3-2.18,15.27-4.36,30.54-6.44,45.81,3.12-.31,4.67-.52,7.79-.83.52-3.84.73-5.82,1.25-9.56,1.45-.1,2.18-.21,3.74-.31s2.18-.21,3.74-.31c.42,3.74.73,5.51,1.14,9.25,3.12-.31,4.67-.42,7.79-.73m-15.38-16c.93-7.27,1.87-14.65,2.8-21.92.93,7.17,1.77,14.44,2.7,21.61-2.29.1-3.32.21-5.51.31" transform="translate(-392.43 -336.9)" style="fill:#fff"/><path d="M507.43,475.17c-2.29-14.75-4.57-29.61-6.86-44.36H487.79c.21,1.14.31,1.66.52,2.8-2.18,14.13-4.26,28.15-6.44,42.28,3.12-.1,4.67-.21,7.9-.31.52-3.53.73-5.3,1.25-8.93,1.45,0,2.18-.1,3.74-.1s2.18,0,3.74-.1c.52,3.53.73,5.3,1.14,8.83,3.12-.1,4.67-.1,7.79-.1m-15.48-16c.93-6.86,1.87-13.61,2.8-20.47.93,6.75,1.77,13.61,2.7,20.36-2.18,0-3.22.1-5.51.1" transform="translate(-392.43 -336.9)" style="fill:#fff"/><path d="M476.16,430.81c-1.66,12.47-3.32,25-5,37.5-1.66-12.47-3.22-25-4.78-37.5H458.6c1.87,13.4,3.64,26.91,5.51,40.31,1.77,2.18,2.6,3.32,4.36,5.51l8.62-.52c2.29-15.06,4.57-30.23,7-45.29Z" transform="translate(-392.43 -336.9)" style="fill:#fff"/><path d="M432.53,443.07V438c-2.7-2.8-4.05-4.26-6.86-7.17h-8.31c-2.7,3-4.16,4.47-6.86,7.58V483c2.7,2.6,4.05,3.95,6.86,6.44,3.32-.52,5-.83,8.31-1.25,2.7-3.32,4.16-5,6.86-8.1V465.61c-2.6,3-5.3,5.92-7.79,9V479a9,9,0,0,0-.93,1.14c-1.77.21-2.6.31-4.36.62a7.93,7.93,0,0,1-.93-.93V440.58a8.44,8.44,0,0,0,.93-1c1.77,0,2.6-.1,4.36-.1a8.44,8.44,0,0,1,.93,1V452c2.6-3.22,5.19-6.13,7.79-8.93" transform="translate(-392.43 -336.9)" style="fill:#fff"/><path d="M615.26,452.42v-14c-2.7-3.12-4.16-4.57-6.86-7.58h-8.83c-2.7,2.91-4.16,4.36-6.86,7.17v14.75c5,4.47,9.87,8.93,14.65,13.61v13.3a7.93,7.93,0,0,0-.93.93c-2-.31-2.91-.42-4.88-.62-.42-.52-.62-.73-.93-1.14v-7.48l-7.79-5.82V480s4.16,4.78,6.86,8.1c2.39.31,3.53.52,5.82.93l2.91.52c2.7-2.49,4.05-3.84,6.86-6.44V462.81c-4.78-4.67-9.66-9.35-14.65-13.82v-8.83a8.43,8.43,0,0,0,.93-1c2,0,2.91.1,4.88.1a8.43,8.43,0,0,1,.93,1v6.13s4.78,3.53,7.9,6" transform="translate(-392.43 -336.9)" style="fill:#fff"/><path d="M509.4,430.81a21.15,21.15,0,0,1,.93,2.29v42.07c6,0,12.15.1,18.18.21.62-2.91.83-4.47,1.45-7.38-3.95-.1-7.9-.1-11.74-.21V433.1a21.15,21.15,0,0,0,.93-2.29Z" transform="translate(-392.43 -336.9)" style="fill:#fff"/><path d="M564.46,403.8l-3.22-3.22h-7.38v22h7.58l3-3V403.8Zm-3.64,14.75-.42.42h-2.8V404.32h2.7l.42.42v13.82Z" transform="translate(-392.43 -336.9)" style="fill:#fff"/><polygon points="99.94 67.42 99.94 63.68 94.85 63.68 91.42 63.68 91.63 65.14 91.63 85.81 99.94 85.81 99.94 82.07 95.37 82.07 95.37 75.42 99 75.42 99 72.2 95.37 72.2 95.37 67.42 99.94 67.42" style="fill:#fff"/><polygon points="123.83 85.81 123.83 82.07 119.16 82.07 119.16 75.42 122.9 75.42 122.9 72.2 119.16 72.2 119.16 67.42 123.83 67.42 123.83 63.68 118.74 63.68 115.31 63.68 115.52 65.14 115.52 85.81 123.83 85.81" style="fill:#fff"/><polygon points="125.6 73.86 125.6 85.81 134.12 85.81 134.84 82.07 129.34 82.07 129.34 73.86 129.34 72.41 129.34 65.14 129.55 63.68 125.39 63.68 125.6 65.14 125.6 72.41 125.6 73.86" style="fill:#fff"/><polygon points="80.82 73.86 80.82 85.81 89.34 85.81 90.07 82.07 84.56 82.07 84.56 73.86 84.56 72.41 84.56 65.14 84.77 63.68 80.62 63.68 80.82 65.14 80.82 72.41 80.82 73.86" style="fill:#fff"/><path d="M532.67,418.35h3.53l.52,4.36h3.64l-3.22-22h-6l.21,1.35-3,20.67h3.64Zm1.66-13.82,1.25,10.08H533Z" transform="translate(-392.43 -336.9)" style="fill:#fff"/><polygon points="105.24 63.68 101.5 63.68 104.2 83 106.28 85.81 110.22 85.81 113.44 63.68 109.81 63.68 107.52 81.86 105.24 63.68" style="fill:#fff"/><polygon points="153.02 73.86 153.02 73.76 156.45 85.81 156.45 85.81 159.88 85.81 159.88 63.68 156.14 63.68 156.25 74.9 152.71 63.68 149.08 63.68 149.28 65.14 149.28 85.81 153.02 85.81 153.02 73.86" style="fill:#fff"/><polygon points="79.27 69.19 79.27 66.9 76.05 63.68 72.1 63.68 68.88 66.9 68.88 82.59 72.1 85.81 76.05 85.81 79.27 82.59 79.27 76.67 75.53 80.41 75.53 81.65 75.11 82.07 73.03 82.07 72.51 81.65 72.51 67.84 73.03 67.32 75.11 67.32 75.53 67.84 75.53 72.93 79.27 69.19" style="fill:#fff"/></svg>