<svg xmlns="http://www.w3.org/2000/svg" viewBox="0 0 239.53 289.01"><title>Memphis Grizzlies logo</title><path d="M440.4,641.22a6,6,0,0,0-6-6h-11.3v21.3h5v-6.67h4.63a2.69,2.69,0,0,1,2.69,2.69v3.89h5v-3.89a7.37,7.37,0,0,0-1.57-4.63,6,6,0,0,0,1.76-4.35v-2.32h-.19Zm-6-1.11a1.13,1.13,0,0,1,1.11,1.11v2.41a1.32,1.32,0,0,1-1.3,1.3H428V640.2h6.39Z" transform="translate(-392.23 -367.5)" style="fill:#12173f"/><polygon points="159.97 289.01 142.27 289.01 142.27 267.7 147.28 267.7 147.28 284.01 159.97 284.01 159.97 289.01" style="fill:#12173f"/><polygon points="209.15 272.61 209.15 267.7 191.46 267.7 191.46 289.01 209.15 289.01 209.15 284.01 196.46 284.01 196.46 280.58 207.39 280.58 207.39 275.58 196.46 275.58 196.46 272.61 209.15 272.61" style="fill:#12173f"/><polygon points="97.44 289.01 78.27 289.01 89.29 272.61 79.47 272.61 79.47 267.7 98.55 267.7 87.62 284.01 97.44 284.01 97.44 289.01" style="fill:#12173f"/><polygon points="128.29 289.01 109.11 289.01 120.04 272.61 110.22 272.61 110.22 267.7 129.4 267.7 118.38 284.01 128.29 284.01 128.29 289.01" style="fill:#12173f"/><rect x="172.28" y="267.7" width="5" height="21.3" style="fill:#12173f"/><rect x="61.41" y="267.7" width="5" height="21.3" style="fill:#12173f"/><rect x="61.41" y="267.7" width="5" height="21.3" style="fill:#12173f"/><path d="M538,588.52H519.87v39h9v-12.6H538A11,11,0,0,0,549,604v-4.63A10.93,10.93,0,0,0,538,588.52ZM540,604a2,2,0,0,1-1.95,1.95h-9.17v-8.52H538a2,2,0,0,1,1.95,1.95Z" transform="translate(-392.23 -367.5)" style="fill:#12173f"/><path d="M524.69,627.51h-.74V592.59h14a6.84,6.84,0,0,1,6.85,6.85v4.63a6.84,6.84,0,0,1-6.85,6.85H524.69Zm0-17.41h13.25A6.11,6.11,0,0,0,544,604v-4.63a6.11,6.11,0,0,0-6.11-6.11H524.69Z" transform="translate(-392.23 -367.5)" style="fill:#5d76a9"/><polygon points="76.32 229.91 76.32 221.02 46.68 221.02 46.68 260.02 76.32 260.02 76.32 251.03 55.67 251.03 55.67 245.01 73.08 245.01 73.08 236.03 55.67 236.03 55.67 229.91 76.32 229.91" style="fill:#12173f"/><polygon points="76.32 225.84 76.32 225.1 50.85 225.1 50.85 255.94 76.32 255.94 76.32 255.2 51.59 255.2 51.59 240.84 73.08 240.84 73.08 240.1 51.59 240.1 51.59 225.84 76.32 225.84" style="fill:#5d76a9"/><path d="M504.13,588.52H473.19v39h9v-30h7.5v30h9v-30h5.56a2,2,0,0,1,1.95,1.95v28.07h9V599.45a11.09,11.09,0,0,0-11-10.93" transform="translate(-392.23 -367.5)" style="fill:#12173f"/><path d="M504.13,592.59H477.27v34.92H478V593.43h15.75v34.18h.74V593.43h9.63a6.11,6.11,0,0,1,6.11,6.11v28.07H511V599.54a6.92,6.92,0,0,0-6.85-6.95" transform="translate(-392.23 -367.5)" style="fill:#5d76a9"/><path d="M423.17,588.52H392.23v39h9v-30h7.5v30h9v-30h5.56a2,2,0,0,1,1.95,1.95v28.07h9V599.45a11.09,11.09,0,0,0-11-10.93" transform="translate(-392.23 -367.5)" style="fill:#12173f"/><path d="M423.17,592.59H396.31v34.92h.74V593.43H412.8v34.18h.74V593.43h9.63a6.11,6.11,0,0,1,6.11,6.11v28.07H430V599.54a6.86,6.86,0,0,0-6.85-6.95" transform="translate(-392.23 -367.5)" style="fill:#5d76a9"/><rect x="195.81" y="221.02" width="8.98" height="39" style="fill:#12173f"/><rect x="199.89" y="221.02" width="0.74" height="39" style="fill:#5d76a9"/><polygon points="180.99 221.02 180.99 236.03 169.88 236.03 169.88 221.02 160.89 221.02 160.89 260.02 169.88 260.02 169.88 245.01 180.99 245.01 180.99 260.02 189.98 260.02 189.98 221.02 180.99 221.02" style="fill:#12173f"/><polygon points="185.07 221.02 185.07 240.1 165.71 240.1 165.71 221.02 164.97 221.02 164.97 260.02 165.71 260.02 165.71 240.84 185.07 240.84 185.07 260.02 185.9 260.02 185.9 221.02 185.07 221.02" style="fill:#5d76a9"/><path d="M409.65,656.5H398.26a6,6,0,0,1-6-6v-9.17a6,6,0,0,1,6-6h5.28a6,6,0,0,1,6,6v1h-5v-1a1.13,1.13,0,0,0-1.11-1.11h-5.28a1.13,1.13,0,0,0-1.11,1.11v9.17a1.13,1.13,0,0,0,1.11,1.11h6.39v-1.95h-3v-5h7.87V656.5Z" transform="translate(-392.23 -367.5)" style="fill:#12173f"/><path d="M409.65,656.5H398.26a6,6,0,0,1-6-6v-9.17a6,6,0,0,1,6-6h5.28a6,6,0,0,1,6,6v1h-5v-1a1.13,1.13,0,0,0-1.11-1.11h-5.28a1.13,1.13,0,0,0-1.11,1.11v9.17a1.13,1.13,0,0,0,1.11,1.11h6.39v-1.95h-3v-5h7.87V656.5Z" transform="translate(-392.23 -367.5)" style="fill:#12173f"/><path d="M625.56,656.5h-5.28a6,6,0,0,1-6-6v-.74h5v.74a1.13,1.13,0,0,0,1.11,1.11h5.28a1.13,1.13,0,0,0,1.11-1.11v-.93l-9.17-2.41a4.47,4.47,0,0,1-3.24-4.35v-1.3a6.21,6.21,0,0,1,6.21-6.21h5.19a6,6,0,0,1,6,6v1h-5v-1a1.13,1.13,0,0,0-1.11-1.11h-5.19a1.23,1.23,0,0,0-1.2,1.2v1l9.17,2.41a4.47,4.47,0,0,1,3.24,4.35v1.2a6.11,6.11,0,0,1-6.11,6.11" transform="translate(-392.23 -367.5)" style="fill:#12173f"/><path d="M620.74,627.42H602.31V615h9v3.43h9.45a2.06,2.06,0,0,0,2-2v-1.76l-14.63-4.54a8.34,8.34,0,0,1-5.84-7.87v-2.78a11,11,0,0,1,11-11h18.43V601.3h-9v-3.89h-9.45a2.06,2.06,0,0,0-2,2v2.22l14.54,4.45a8.25,8.25,0,0,1,5.84,8v2.32a10.85,10.85,0,0,1-10.93,11" transform="translate(-392.23 -367.5)" style="fill:#12173f"/><path d="M620.74,623.34H606.48V615h.74v7.6h13.52a6.11,6.11,0,0,0,6.11-6.11v-2.32a3.6,3.6,0,0,0-2.41-3.33l-15.1-4.63a4.06,4.06,0,0,1-2.87-3.89v-2.78a6.94,6.94,0,0,1,6.95-6.95h14.26v8.8h-.74v-8.06H613.43a6.11,6.11,0,0,0-6.11,6.11v2.78a3.36,3.36,0,0,0,2.41,3.24l15.1,4.63a4.17,4.17,0,0,1,3,4v2.32a7.08,7.08,0,0,1-7,6.95" transform="translate(-392.23 -367.5)" style="fill:#5d76a9"/><path d="M606.76,415.49a32.3,32.3,0,0,0,4-15.1c0-11.12-6.21-21-14.91-27-12.13-8.24-30.29-9.36-43.16,6a81.12,81.12,0,0,0-40.57,5.09,82.21,82.21,0,0,0-40.57-5.09c-12.87-15.38-31.12-14.26-43.16-6-8.71,5.93-14.91,15.84-14.91,27a32.3,32.3,0,0,0,4,15.1c-9.73,14-16.39,30.66-16.39,47.61,0,20.38,8.71,30.84,11.95,35.38l2.59-2.59c9.26,23.43,25,36.12,44.09,47.61,0,0,.46-2.32.83-4.35,20.56,17.78,30.29,13.43,51.59,37.51,21.21-24,31.31-19.91,51.59-37.51.37,2,.83,4.35.83,4.35,8.52-5.09,32.42-18,44.09-47.61l2.59,2.59c2-2.78,11.95-13.89,11.95-35.38.09-17-6.67-33.53-16.39-47.61" transform="translate(-392.23 -367.5)" style="fill:#707271"/><path d="M600.92,415.86c19.54-30-24.82-61.32-46.31-31-21.77-3.89-40,4.08-42.52,5.19-2.41-1.11-20.75-9.08-42.52-5.19-21.49-30.29-65.86,1-46.31,31-22.32,30.66-20,60.86-9.73,75l4.26-4.26s6.11,29.55,38.16,48.91l1.11-6.39c19.73,21.12,37.79,20.66,54.93,39.92,17-19.27,35.11-18.8,54.93-39.92l1.11,6.39c32.14-19.36,38.16-48.91,38.16-48.91l4.26,4.26c10.56-14.26,12.78-44.46-9.54-75" transform="translate(-392.23 -367.5)" style="fill:#12173f"/><path d="M512.28,528.12s-15.47.28-17.69,1.67c0,0-2.69,4.63,17.69,4.54,19.36-.09,16.49-3.61,16.67-4.17a61.75,61.75,0,0,0-16.67-2" transform="translate(-392.23 -367.5)" style="fill:#5d76a9"/><path d="M498.94,510.25s2.41-6.95,5-4.72c3.52,3.06,8.24,9.26,8.24,9.91v8.34l-5.65.28c-3.24.09-13.62,2.59-13.62,2.59-14.36-35.48-6.39-62.43-2.59-72-14.17,3.06-16.49-14-16.49-14,1.48-.28,3.61.37,6.11,1.48a76,76,0,0,1,11.86,7.69h0c1,.83,2,1.57,2.87,2.32,9.63,8.15,17.51,6.48,17.51,6.48v34.73c-.09,0-28.25-2.22-13.25,16.86" transform="translate(-392.23 -367.5)" style="fill:#5d76a9"/><path d="M525.34,510.25c18-18.25-11.3-17.14-13.15-16.86,3.06.19,25.75.28,13.15,16.86" transform="translate(-392.23 -367.5)" style="fill:#5d76a9"/><path d="M537.29,455.14c16.12,43.53-4.35,71.51-4.45,71.69,12.69-33.25,4.54-60.95-1-71.23a49.61,49.61,0,0,1-6.3.09,62.8,62.8,0,0,0,7-5.19,4,4,0,0,1,.65-.56,44.26,44.26,0,0,1,12-7.78h0a27.73,27.73,0,0,1,6.21-1.57c.09,0-1.48,14.36-14.17,14.54" transform="translate(-392.23 -367.5)" style="fill:#5d76a9"/><path d="M562.85,398.82s6.58-16.49,26.77-12.5c0,0-18.53-12.23-31.4,9.82,0,0-18.53-8.71-46.13,3.24,0,0-25.94-9.08-45.66-4,0,0-11.49-19.91-27.7-11.76s-7.78,27.23-4.91,32.14c0,0-26.86,27.32-16.77,61.13l5.37-6.76s7.69,36.77,27.6,48.44l1.2-9.08s20.75,25,45.2,35.66c2.32,1.11,15.28,7.5,15.65,10.65V538.31s-17,1.39-21.4-6.39c-3.06-5.28-22.51-40-12.87-76.42,0,0-9.36-1.39-11.12-17.23a32.65,32.65,0,0,0-15.65-2.69s15.56-4.91,30.1.74,18.43,20,28.34,13.62l2.69-40.38,3,40.38c9.82,6.3,13.8-8,28.34-13.62s30.1-.74,30.1-.74a46.86,46.86,0,0,0-16.21-6.39c-8.34-1.67-20.56,3.71-20.56,3.71s1.67-11.49,7.22-17.6C548.77,410.3,559.52,409.1,562.85,398.82Zm-125.51,14c-.56-5.46,6.39-10.93,6.39-10.93-2.87-3-7.87-.37-7.87-.37,4.54-8.89,14.73-4.54,14.73-4.54-3.89-4.72-12-4.45-12-4.45,10.1-10,22.32,5.28,22.32,5.28C449.94,400.21,437.34,412.81,437.34,412.81Z" transform="translate(-392.23 -367.5)" style="fill:#5d76a9"/><path d="M491.71,449.76c-1.57-.46-4.17,1.11-5.56,3.89-4.82-1.39-6.48-6.58-6.3-11.58h0a71.85,71.85,0,0,1,11.86,7.69" transform="translate(-392.23 -367.5)" style="fill:#fb2"/><path d="M539.14,453.75c-1.48-3-4.26-4.54-5.84-3.8a44.26,44.26,0,0,1,12-7.78h0c.28,5-1.48,10.19-6.21,11.58" transform="translate(-392.23 -367.5)" style="fill:#fb2"/></svg>