<svg id="Layer_1" data-name="Layer 1" xmlns="http://www.w3.org/2000/svg" viewBox="0 0 348.1 335.4"><title>Charlotte Hornets logo - Brandlogos.net</title><g id="Layer_2" data-name="Layer 2"><path d="M166.75,241.3h-24.7V268l-14.8,7.3,14.8,7.7v23.8l16.4,10.1c6-.8,13.7-1.8,22.7-2.7l63.3,36.5L256,403.8c.1-.1,11.6-53.1,11.6-53.1l63.2-36.5c8.9.9,16.6,1.8,22.7,2.7l16.3-10.1V283l14.8-7.6-14.8-7.5V241.2h-24.6s3.8-3.7,8.7-12c2-3.5,4-7.8,6.3-12.9,18-5.4,31.3-17,36.9-28.1,15.4-28.2,27-62.6,27-62.6s-6.6,3.2-14.7,7.2c6.5-19.8,10.4-36.7,10.4-36.7s-71,46.9-126.2,91.1l-4.8-2.9c0-.5.2-4.5.2-4.8,0,0,.6-4.7-7.7-7.5a13.14,13.14,0,0,0-1.5-.5c4-3,10.2-7.6,14.8-10.7,7.2-5,6.4-10.4,6.4-10.4l-26.2,19.5a60.78,60.78,0,0,0-37.2,0l-26.2-19.5s-.8,5.4,6.4,10.4c4.5,3.1,10.8,7.7,14.8,10.7a6.61,6.61,0,0,1-1.5.5c-8.3,2.8-7.7,7.5-7.7,7.5,0,.4.1,4.3.2,4.8l-4.8,2.9c-55.6-44-126.5-91-126.5-91s3.9,16.7,10.4,36.6c-8.6-4.2-14.7-7.2-14.7-7.2s11.6,34.5,27,62.6c5.7,11.2,18.9,22.7,36.9,28.1,0,0,3,6.9,5.6,12,3.2,6.2,9.3,13,9.3,13" transform="translate(-81.95 -88.3)" style="fill:#1d1160"/><path d="M285.75,201.2a10.1,10.1,0,0,0-.7,2.3c24.8-16.2,68.2-44.5,116.9-76.2,0,0,.1,1,4.3-11.4-51.5,31-96.9,66.2-120.5,85.3" transform="translate(-81.95 -88.3)" style="fill:#00788c"/><path d="M226.15,201.2c-23.6-19.1-69.1-54.3-120.5-85.3,4.3,12.6,4.3,11.5,4.3,11.5,48.7,31.6,92,59.9,116.9,76.2a10.88,10.88,0,0,0-.7-2.4" transform="translate(-81.95 -88.3)" style="fill:#00788c"/><path d="M256,226.3a40.68,40.68,0,0,1-21.4-20.9c5.3,4.5,12,6,17.4.7-6.5-2.9-7.4-14.6-8.7-17.6-2.6-6.3-6.6-9.4-9.9-10.7,1.6-.6,3-1,4.5-1.5a19.83,19.83,0,0,1,9.9,13.2s.6-8.8-3.7-14.8a50.29,50.29,0,0,1,23.8,0c-4.3,6.1-3.7,14.8-3.7,14.8a19.27,19.27,0,0,1,9.9-13.2c1.4.5,2.9.9,4.5,1.5-3.2,1.3-7.3,4.5-9.9,10.7-1.3,3-2.1,14.8-8.7,17.6,1.5,9-.3,17.3-4,20.2m-74.9,16.4A64.85,64.85,0,0,1,162,218l4.9,1.5c15.9,4.2,46.3,8.4,46.3,8.4-14.7.4-27,1.5-34.1,2.2a24.48,24.48,0,0,1-3.8-5.9,52.24,52.24,0,0,0,1.8,9,51.23,51.23,0,0,0,4,9.5" transform="translate(-81.95 -88.3)" style="fill:#00788c"/><path d="M334.75,233.3h0a43.53,43.53,0,0,0,1.8-9,21.78,21.78,0,0,1-3.8,5.9c-7.1-.8-19.5-1.9-34.1-2.3,0,0,30.4-4.1,46.3-8.4l4.9-1.5a64.85,64.85,0,0,1-19.1,24.7,39.57,39.57,0,0,0,4-9.4" transform="translate(-81.95 -88.3)" style="fill:#00788c"/><path d="M218.05,318.2l-31-17.9c-2.2.2-4.4.5-6.5.6l43,24.8a41.38,41.38,0,0,1-5.5-7.5" transform="translate(-81.95 -88.3)" style="fill:#00788c"/><path d="M293.85,318.2l31-17.9c2.2.2,4.4.5,6.5.6l-43,24.8a41.38,41.38,0,0,0,5.5-7.5" transform="translate(-81.95 -88.3)" style="fill:#00788c"/><path d="M242.25,322.4c-13.6-3-19.4-9.7-19.4-9.7a36.65,36.65,0,0,0,12.3,14.2c-.1-.1,5.7-1.7,7.1-4.5" transform="translate(-81.95 -88.3)" style="fill:#00788c"/><path d="M233.85,307.7l-3-3a25.4,25.4,0,0,0-8.1,4.3c3,2.9,8.8,6.7,19.2,8.9-1.3-3.3-4.5-6.6-8.1-10.2" transform="translate(-81.95 -88.3)" style="fill:#00788c"/><path d="M255.65,340a24.4,24.4,0,0,0-8.9,2.2c-1.1-2.1-2.5-4.3-3.7-6.3a22.87,22.87,0,0,0,7.3-.3,44.94,44.94,0,0,1-11.3-5.6h0a6.71,6.71,0,0,1,1.5-.6h0a13.27,13.27,0,0,0,4.1-2.9,7.41,7.41,0,0,0,2.3-5.3c0-6.8-4.6-9.1-9.7-14.2-1-1-2.1-2-3.2-3.1,4.7-1.3,11.2-2.2,19.7-2.4l2,28.9h.3l2.1-28.9c8.7.2,15,1.1,19.7,2.4-1.1,1.1-2.2,2.1-3.2,3.1-5.2,5.1-9.7,7.4-9.7,14.2a7.07,7.07,0,0,0,2.3,5.3,16.91,16.91,0,0,0,4.1,2.9h0a4.71,4.71,0,0,0,1.5.6h0a44.53,44.53,0,0,1-11.3,5.6,26.89,26.89,0,0,0,7.3.3,54.9,54.9,0,0,0-3.7,6.3,23.18,23.18,0,0,0-8.9-2.2Z" transform="translate(-81.95 -88.3)" style="fill:#00788c"/><path d="M276.75,326.8a38.37,38.37,0,0,0,12.3-14.2s-5.6,6.7-19.4,9.7c1.4,2.9,7.1,4.5,7.1,4.5" transform="translate(-81.95 -88.3)" style="fill:#00788c"/><path d="M270,318.1c10.3-2.1,16.1-6,19.2-8.9a21.9,21.9,0,0,0-8.1-4.3,42.42,42.42,0,0,1-3,3c-3.6,3.4-6.8,6.7-8.1,10.2" transform="translate(-81.95 -88.3)" style="fill:#00788c"/><path d="M246.65,206.9a14.84,14.84,0,0,1-5.8-10.3s-6.5,10.9,5.8,10.3" transform="translate(-81.95 -88.3)" style="fill:#fff"/><path d="M265.55,206.9a14.84,14.84,0,0,0,5.8-10.3c.1,0,6.5,10.9-5.8,10.3" transform="translate(-81.95 -88.3)" style="fill:#fff"/><path d="M261.85,350.6c-.9-.9-2.2-2-6.2-2-3.8,0-5.1.9-6.2,1.8l6.5,25.4Z" transform="translate(-81.95 -88.3)" style="fill:#fff"/><polygon points="222.6 150.3 222.6 159.6 219.5 159.6 219.5 150.3 216.9 150.3 216.9 147.6 225.2 147.6 225.2 150.3 222.6 150.3" style="fill:#fff"/><polygon points="207.9 150.3 207.9 159.6 204.8 159.6 204.8 150.3 202.2 150.3 202.2 147.6 210.6 147.6 210.6 150.3 207.9 150.3" style="fill:#fff"/><path d="M245.85,243.6H247v-6.5l-1.3-1.3h-7.9v12h3v-4.2H243l1.8,4.2h3ZM244,241h-3.3v-2.4H244Z" transform="translate(-81.95 -88.3)" style="fill:#fff"/><polygon points="240.7 150.3 240.7 147.6 231.8 147.6 231.8 159.6 240.7 159.6 240.7 156.9 234.9 156.9 234.9 155 240.7 155 240.7 152.3 234.9 152.3 234.9 150.3 240.7 150.3" style="fill:#fff"/><polygon points="175.7 156.9 175.7 147.6 172.5 147.6 172.5 159.6 180.1 159.6 180.1 156.9 175.7 156.9" style="fill:#fff"/><path d="M275.75,235.9h-7.9v10.7l1.4,1.4h7.9V237.3Zm-1.5,9.3h-3.4v-6.6h3.4Z" transform="translate(-81.95 -88.3)" style="fill:#fff"/><path d="M230.55,247.9V237.2l-1.3-1.4h-8.1v12h3v-3.9h3.4v3.9l3,.1Zm-6.4-9.3h3.4v2.8h-3.4Z" transform="translate(-81.95 -88.3)" style="fill:#fff"/><polygon points="129.6 147.6 129.6 153 126.2 153 126.2 147.6 123.2 147.6 123.2 159.6 126.2 159.6 126.2 155.7 129.6 155.7 129.6 159.6 132.6 159.6 132.6 147.6 129.6 147.6" style="fill:#fff"/><path d="M391.55,150.8c5.8-13.7,10.2-23.4,10.2-23.4-48.7,31.6-92,59.9-116.9,76.2a44.58,44.58,0,0,1-3.2,7.3l98-53.4-76.5,55.2,3.5-.6,40.4-3.9s27.3-2.7,42.5-23.1c7.2-11,19.4-43.1,19.4-43.1Z" transform="translate(-81.95 -88.3)" style="fill:#fff"/><path d="M157.45,278.6l9.4-4.1v21.4c2.7-.4,5.4-.7,8.3-1V248h-8.3v16.9l-9.4,4V248.1h-8.3v24.3l-6.8,3.3,6.8,3.4v19.7c2.7-.5,5.5-.9,8.3-1.4Z" transform="translate(-81.95 -88.3)" style="fill:#fff"/><path d="M222.15,278.5c2-.1,4.1-.1,6.2-.2,1.6,4,3.1,8.5,4.6,12.4,2.8-.1,5.5-.2,8.3-.2-1.6-4-3-8.5-4.6-12.4,1,0,2.1,0,3.1-.1V258.8l-3.7-3.6h-25.4l3.1,3.8v32.6c2.8-.2,5.5-.3,8.3-.5l.1-12.6Zm0-15.7h9.4v7.4c-3.1,0-6.3.1-9.4.2Z" transform="translate(-81.95 -88.3)" style="fill:#fff"/><path d="M254.45,262.8H264v27.6c2.9,0,5.8.1,8.7.1V259l-3.8-3.8h-26L246,259v31.5c2.9,0,5.6-.1,8.5-.1V262.8Z" transform="translate(-81.95 -88.3)" style="fill:#fff"/><path d="M303.75,283.8c-5.3-.3-10.7-.6-16-.7v-5.9l16,.6v-8.3c-5.3-.2-10.7-.3-16-.4v-6.3h16v-7.7h-27.9l3.1,3.7v31.8c8.5.3,16.8.6,24.8,1.1v-7.9Z" transform="translate(-81.95 -88.3)" style="fill:#fff"/><path d="M324.65,262.8h7.2v-7.7h-23.4v7.7h7.3v29.9c3,.3,6.1.5,9,.7l-.1-30.6Z" transform="translate(-81.95 -88.3)" style="fill:#fff"/><path d="M207.65,259l-3.8-3.8h-25.5l3,3.6v31l3.3,4c7.3-.7,15-1.4,23-1.8Zm-8.3,25.2-9.5.6v-22h9.5Z" transform="translate(-81.95 -88.3)" style="fill:#fff"/><path d="M361.85,278.9c2.6-1.1,5.2-2.3,7.7-3.5-8.3-3.9-16.6-7.3-24.8-10.5v-9.4h8.8v3.4H362V248h-28.6l3.1,3.7v19.4l17.1,7.4v10.9l-8.8-1.1v-3.5l-8.3-1v11.1c9,1,17.6,2.3,25.4,3.7,0-6.1,0-15.4,0-19.7" transform="translate(-81.95 -88.3)" style="fill:#fff"/><polygon points="113.4 155.9 113.4 156.9 110.7 156.9 110.7 150.3 113.4 150.3 113.4 151.3 116.5 151.3 116.5 147.6 107.8 147.6 107.8 158.3 109.2 159.6 116.5 159.6 116.5 155.9 113.4 155.9" style="fill:#fff"/><path d="M120.35,150.8c-5.8-13.7-10.2-23.4-10.2-23.4,48.7,31.6,92,59.9,116.9,76.2a44.58,44.58,0,0,0,3.2,7.3l-98-53.5,76.5,55.2-3.5-.6-40.4-3.9s-27.3-2.7-42.5-23.1c-7.2-11-19.4-43.1-19.4-43.1Z" transform="translate(-81.95 -88.3)" style="fill:#fff"/><path d="M422.05,141.3c-7.7,20.7-18.1,42.1-23.2,51-8.7,14.8-26,23.7-36.1,27,0,0-4.9,11.9-10.1,18.4h20.7v28.2l19.7,9.4-19.7,10v23.6l-19.1,11.7-22.7-2.7-60.6,35c-12.2,54.9-15,70.8-15,70.8s-2.9-15-15-70.8L180.35,318c-7.4.7-22.7,2.7-22.7,2.7L138.55,309V285.4l-19.7-10,19.6-9.4V237.8h20.7c-5-6.3-10.1-18.4-10.1-18.4a76.78,76.78,0,0,1-17.1-8.1c-8.2-5.3-14.8-11.8-19.1-18.9a383.61,383.61,0,0,1-23.2-51c-3.4-9-7.7-22.5-7.7-22.5s11.2,5.3,14.8,7.1c-5.4-16.1-10-37.7-10-37.7s77.5,51,132,94.6l.8-.6v-2.8a7.93,7.93,0,0,1,.5-3,11.13,11.13,0,0,1,5.2-6c-4-3-11.2-7.9-11.8-8.6-5.3-4.6-6.2-9.7-5.7-12.3l.9-5.8,29.5,21.9c16-4.6,27.4-2.3,35.8,0l29.5-21.9.9,5.8c.4,2.5-.5,7.7-5.7,12.3-.6.6-7.8,5.6-11.8,8.6a11.69,11.69,0,0,1,5.2,6,7.93,7.93,0,0,1,.5,3v2.8l.8.6c55.6-44.6,131.9-94.6,131.9-94.6s-3.8,17.7-10,37.7c3-1.5,14.8-7.1,14.8-7.1-3.5,10.7-8,22.4-8,22.4m-255.3,100h-24.7V268l-14.8,7.3,14.8,7.7v23.8l16.4,10.1c6-.8,13.7-1.8,22.7-2.7l63.3,36.5L256,403.8c.1-.1,11.6-53.1,11.6-53.1l63.2-36.5c8.9.9,16.6,1.8,22.7,2.7l16.3-10.1V283l14.8-7.6-14.8-7.5V241.2h-24.6s3.8-3.7,8.7-12c2-3.5,4-7.8,6.3-12.9,18-5.4,31.3-17,36.9-28.1,15.4-28.2,27-62.6,27-62.6s-6.6,3.2-14.7,7.2c6.5-19.8,10.4-36.7,10.4-36.7s-71,46.9-126.2,91.1l-4.8-2.9c0-.5.2-4.5.2-4.8,0,0,.6-4.7-7.7-7.5a13.14,13.14,0,0,0-1.5-.5c4-3,10.2-7.6,14.8-10.7,7.2-5,6.4-10.4,6.4-10.4l-26.2,19.5a60.78,60.78,0,0,0-37.2,0l-26.2-19.5s-.8,5.4,6.4,10.4c4.5,3.1,10.8,7.7,14.8,10.7a6.61,6.61,0,0,1-1.5.5c-8.3,2.8-7.7,7.5-7.7,7.5,0,.4.1,4.3.2,4.8l-4.8,2.9c-55.6-44-126.5-91-126.5-91s3.9,16.7,10.4,36.6c-8.6-4.2-14.7-7.2-14.7-7.2s11.6,34.5,27,62.6c5.7,11.2,18.9,22.7,36.9,28.1,0,0,3,6.9,5.6,12,3.2,6.2,9.3,13,9.3,13" transform="translate(-81.95 -88.3)" style="fill:#a1a1a4"/></g></svg>