<svg xmlns="http://www.w3.org/2000/svg" viewBox="0 0 340.36 147.42"><title>Utah Jazz vector</title><path d="M579.57,568.08H558.94L587,503.64h20.81c-15.18,34.54-23.63,53.71-28.27,64.44m-67.71-5.36L494,503.55h43.9c-13,29.54-21.09,47.81-26,59.17m-62.62-18.9L454,532.9l3.27,10.91Zm179.86,24.27,35.26-80.89H500.59l-6.82,15.63-4.73-15.63H456.24s-21.63,49.35-27.81,63.53a46.76,46.76,0,0,0,.91-8.82v-1.18c2.45-5.54,21.54-49.35,25.45-58.26h90L564,438.29H457.33l-35,80.16a43.68,43.68,0,1,0-1.18,48.9l-7.45,17.18h17.9l10.54-24.18h20.18l7.27,24.18H658.1l7.18-16.45Z" transform="translate(-341.82 -438.29)" style="fill:#fff"/><path d="M344.45,543.9a41.16,41.16,0,0,0,12.45,27.54,39.41,39.41,0,0,0,13.36-27.54H344.45Z" transform="translate(-341.82 -438.29)" style="fill:#0d2240"/><path d="M373.81,543.9a42.93,42.93,0,0,1-14.18,30,41.34,41.34,0,0,0,24.08,9.18V544h-9.91Z" transform="translate(-341.82 -438.29)" style="fill:#ffa400"/><path d="M344.45,540.27h25.81a39,39,0,0,0-13.36-27.81,40.82,40.82,0,0,0-12.45,27.81" transform="translate(-341.82 -438.29)" style="fill:#0d2240"/><path d="M359.63,510a42.83,42.83,0,0,1,14.18,30.26h9.82V500.82a41.3,41.3,0,0,0-24,9.18" transform="translate(-341.82 -438.29)" style="fill:#ffa400"/><path d="M426.43,543.9H400.71a39.24,39.24,0,0,0,13.36,27.54,41.07,41.07,0,0,0,12.36-27.54" transform="translate(-341.82 -438.29)" style="fill:#0d2240"/><path d="M397.08,543.9h-9.82V583a40.38,40.38,0,0,0,24.08-9.18,42.63,42.63,0,0,1-14.27-29.9" transform="translate(-341.82 -438.29)" style="fill:#2b5134"/><path d="M411.35,510a41.34,41.34,0,0,0-24.08-9.18v39.44h9.82A42.92,42.92,0,0,1,411.35,510" transform="translate(-341.82 -438.29)" style="fill:#2b5134"/><path d="M459,440.84l-36.44,83.52A39.73,39.73,0,0,0,414,512.45a39.15,39.15,0,0,0-13.36,27.81h25.81l26.36-60.44h77.07l17-39Z" transform="translate(-341.82 -438.29)" style="fill:#0d2240"/><polygon points="201.04 41.53 218.03 2.54 210.76 2.54 193.77 41.53 201.04 41.53" style="fill:#2b5134"/><path d="M445.25,546.45c3-6.91,6.18-14.09,9.18-21l6.36,21Zm26.17,35.45H502l-27.63-92.07H457.88l-40.44,92.07H429.7s4.54-10.36,10.63-24.18h23.81Z" transform="translate(-341.82 -438.29)" style="fill:#0d2240"/><polygon points="163.05 134.33 167.32 124.6 145.14 51.53 137.87 51.53 163.05 134.33" style="fill:#2b5134"/><path d="M612,570.62l35.45-80.8H595.93L591,501h20.81c-10.72,24.54-35.45,80.8-35.45,80.8h80l4.91-11.18H612Z" transform="translate(-341.82 -438.29)" style="fill:#0d2240"/><polygon points="215.4 127.15 248.39 51.53 241.12 51.53 208.13 127.15 215.4 127.15" style="fill:#2b5134"/><polygon points="285.56 127.15 318.55 51.53 311.28 51.53 278.29 127.15 285.56 127.15" style="fill:#2b5134"/><path d="M577.39,489.82H502.23L497.32,501h44.44c-10.72,24.54-35.45,80.8-35.45,80.8h64.8L576,570.62H542Z" transform="translate(-341.82 -438.29)" style="fill:#0d2240"/><path d="M573.57,473.83H564l14.54-33h-7.09L556.4,474.92c-1.18,2.64,0,4.82,2.73,4.82H573a8.59,8.59,0,0,0,7-4.82l15.09-34.08h-6.91Z" transform="translate(-341.82 -438.29)" style="fill:#0d2240"/><polygon points="284.2 2.54 259.66 2.54 257.02 8.54 266.56 8.54 252.02 41.53 259.02 41.53 273.56 8.54 281.56 8.54 284.2 2.54" style="fill:#0d2240"/><path d="M643.74,440.84h-6.91l-26.45,39H617l3.91-5.91h9.36l-1.36,5.91h7Zm-7.91,9.72-4.09,17.09h-6.82Z" transform="translate(-341.82 -438.29)" style="fill:#0d2240"/><polygon points="333.37 2.54 326.1 19 316.64 19 323.91 2.54 316.82 2.54 299.65 41.53 306.64 41.53 313.92 24.99 323.46 24.99 316.19 41.53 323.19 41.53 340.36 2.54 333.37 2.54" style="fill:#0d2240"/></svg>