<svg xmlns="http://www.w3.org/2000/svg" viewBox="0 0 312.09 356"><title>Sacramento Kings logo</title><path d="M668,334l-44.7,44.92L585.9,341.69l-37.45,37.23L511,341.47,473.77,378.7l-37.23-37.23-37.23,37.45-43.36-44V533.4c0,86.38,69.33,156.6,155.6,156.6S668,619.78,668,533.4Z" transform="translate(-355.96 -334)" style="fill:#fff"/><path d="M369.89,560.6A145,145,0,0,0,391.62,613c6.58-11.48,19.51-25.41,45-31.54-1.89-6.58-3.68-13.49-5.13-20.73l-61.64-.11Z" transform="translate(-355.96 -334)" style="fill:#63717a"/><path d="M401.77,626.36a144.76,144.76,0,0,0,109,51.16c-4-2-7.69-4.24-11.59-6.69-17.72-11.48-42.13-33.77-57.85-75.12-24.63,5.46-35.22,19.51-39.57,30.65" transform="translate(-355.96 -334)" style="fill:#63717a"/><path d="M456.83,593.7c11.26,28.09,28.09,49.71,50.16,64.2a116.66,116.66,0,0,0,37.9,15.94,142.82,142.82,0,0,0,62.75-32.32c-14-1.56-28.76-9.59-43.8-18.17-24-13.38-53.61-30-93.74-30a88.26,88.26,0,0,0-13.26.33" transform="translate(-355.96 -334)" style="fill:#63717a"/><path d="M517,487.48H465.52v61.41h21.4V499.52h16.16v49.38h20.4V496.17c0-4.57-2.9-8.69-6.46-8.69" transform="translate(-355.96 -334)" style="fill:#592d81"/><path d="M532.4,487.48V540.2c0,4.68,2.9,8.69,6.35,8.69h51.61V511.44H569.85v25.08H553.8V499.07h36.67V487.26l-58.07.22Z" transform="translate(-355.96 -334)" style="fill:#592d81"/><polygon points="52.39 153.48 40.79 178.45 34.11 178.45 34.11 153.48 12.71 153.48 12.71 215 34.11 215 34.11 190.26 40.79 190.26 52.39 215 73.79 215 58.85 184.47 73.79 153.48 52.39 153.48" style="fill:#592d81"/><rect x="79.36" y="153.48" width="22.07" height="61.41" style="fill:#592d81"/><path d="M655.34,504.2V487.59H598.72v28.09c0,4.68,2.9,8.47,6.35,8.47h28.87v13.38H598.6v11.59h56.62v-28.2c0-4.35-2.45-8.47-5.57-8.47H619.89V499.52h14.94v4.68Z" transform="translate(-355.96 -334)" style="fill:#592d81"/><polygon points="239.08 91.28 221.13 91.28 258.25 53.95 230.05 25.64 192.6 62.97 155.26 25.64 89.84 91.28 71.67 91.28 109.01 53.84 80.81 25.64 43.58 62.97 12.71 32.32 12.71 93.51 12.71 142.33 299.38 142.33 299.38 94.96 299.38 30.99 239.08 91.28" style="fill:#592d81"/><path d="M431.3,464.52a2.88,2.88,0,0,0,2.9,2.9h15.94v-4.24H437V449.25h13.15V444.9H431.19v19.62h.11Z" transform="translate(-355.96 -334)" style="fill:#fff"/><path d="M405,444.79v22.63h5.8v-5.91h7.36v5.91h5.8V447.58a3,3,0,0,0-3.23-2.9h-15.6v.11Zm13,12.37h-7.36V449H418Z" transform="translate(-355.96 -334)" style="fill:#fff"/><path d="M641.63,444.79H628.36a2.88,2.88,0,0,0-2.9,2.9v16.83a2.88,2.88,0,0,0,2.9,2.9h13.26a3,3,0,0,0,2.9-2.9V447.69a2.64,2.64,0,0,0-2.9-2.9M638.84,463H631.6V449h7.24Z" transform="translate(-355.96 -334)" style="fill:#fff"/><path d="M378.7,455.38a2.88,2.88,0,0,0,2.9,2.9h10.25v4.9H378.7v4.35h18.95v-10.7a2.83,2.83,0,0,0-2.68-2.9H384.38V449h13.15v-4.35H378.7Z" transform="translate(-355.96 -334)" style="fill:#fff"/><path d="M499.41,444.79H483.36v22.63h5.8v-5.91h7.36v5.91h5.8V447.58a2.79,2.79,0,0,0-2.9-2.79m-3,12.37H489V449h7.36Z" transform="translate(-355.96 -334)" style="fill:#fff"/><polygon points="244.09 115.03 250.78 115.03 250.78 133.42 256.47 133.42 256.47 115.03 263.04 115.03 263.04 110.79 244.09 110.79 244.09 115.03" style="fill:#fff"/><path d="M539.31,444.79h-29.2v22.63h5.8V449.14h7.24v18.28h5.91V449.14h7.24v18.28h5.8V447.58a2.76,2.76,0,0,0-2.79-2.79" transform="translate(-355.96 -334)" style="fill:#fff"/><path d="M591.25,444.79H575.09v22.63h5.8V449.14h7.36v18.28H594V447.58a2.63,2.63,0,0,0-2.79-2.79" transform="translate(-355.96 -334)" style="fill:#fff"/><path d="M550.12,464.52a2.88,2.88,0,0,0,2.9,2.9h16.05v-4.24H555.91v-4.9h13.15v-4.35H555.91v-5h13.15v-4.24H550.12Z" transform="translate(-355.96 -334)" style="fill:#fff"/><path d="M472.88,459.06H476V447.47a3,3,0,0,0-3.23-2.9H456.94v22.63h5.8v-8.25H467l3.57,8.25h5.57Zm-2.56-4.35H463v-5.8h7.36Z" transform="translate(-355.96 -334)" style="fill:#fff"/><path d="M466.75,578c30.43-.56,60.86,7.13,99.31,29,28.53,16.16,41,21.07,49.6,19.06,7.8-1.89,15.27-6.69,28.09-33.77a133.79,133.79,0,0,0,10-31.65H446.69a186.76,186.76,0,0,0,4.79,18.17c4.9-.45,10.25-.78,15.27-.78" transform="translate(-355.96 -334)" style="fill:#63717a"/></svg>