<svg xmlns="http://www.w3.org/2000/svg" viewBox="0 0 322.45 322.45"><title>Denver Nuggets logo</title><path d="M512,673.22c-88.92,0-161.22-72.3-161.22-161.22S423.08,350.78,512,350.78,673.22,423.08,673.22,512,600.92,673.22,512,673.22" transform="translate(-350.78 -350.78)" style="fill:#ffc627"/><path d="M512,359.08c84.39,0,153,68.53,153,152.92S596.39,664.92,512,664.92,359.08,596.28,359.08,512,427.72,359.08,512,359.08" transform="translate(-350.78 -350.78)" style="fill:#8b2332"/><path d="M657.15,512.43A145.52,145.52,0,1,1,511.57,366.85,145.58,145.58,0,0,1,657.15,512.43" transform="translate(-350.78 -350.78)" style="fill:#0d2240"/><path d="M511.57,619.59a105.81,105.81,0,0,0,0-211.62c-58.27,0-105.76,47.59-105.76,105.76A105.81,105.81,0,0,0,511.57,619.59" transform="translate(-350.78 -350.78)" style="fill:#8b2332"/><path d="M412.72,513.73a98.74,98.74,0,1,1,98.74,98.74,98.79,98.79,0,0,1-98.74-98.74" transform="translate(-350.78 -350.78)" style="fill:#0d2240"/><path d="M598.44,536c.11-16.94-9.06-40.14-17.16-55.58l-12,6.69-1.19-1.94h0l-3,1.94L446,562v.11l-5.5,6.58-.11-.22c-1.73-.32-3.88-2.05-5.61-5-1.83-2.7-2.48-5.61-2.05-7l-.11-.22,8.2-2.16.11.11,61.3-39.93-41.33-26h0L455.67,485h0L454.37,487l-12-6.69c-8.2,15.54-17.16,38.74-17.16,55.58-6.26-19.64.22-46.4,9.06-63.67l.11-.11-2.16-1.29,7.12-11,2.05,1.51c12-15.22,33.35-32.16,53.74-34.75-15.32,7-32.59,24.82-43.27,38.74L463,473.37l-1.4,1.94h0l2.81,1.94,47.16,30.65,46.51-30.22,3.56-2.27h0l-1.4-1.94,11.12-8.09c-10.58-13.71-27.84-31.73-43.17-38.74,20.4,2.59,41.76,19.53,53.85,34.75l1.94-1.51,7.12,11-2.16,1.29c9.28,17.59,15.76,44.35,9.5,63.78M583,554.19h0l-56.55-36.58-9.82,5.83,61.3,38.63-.11.11,5.5,6.58.22-.22c1.73-.32,3.88-2.05,5.61-5,1.73-2.7,2.48-5.61,2.05-7l.11-.22Z" transform="translate(-350.78 -350.78)" style="fill:#ffc627"/><polygon points="170.83 85.79 166.62 91.4 160.69 77.48 160.69 142.12 180.43 116.87 200.29 122.05 170.83 85.79" style="fill:#ffc627"/><polygon points="170.83 101.12 170.83 85.9 166.62 91.4 170.83 101.12" style="fill:#fff"/><polygon points="160.69 77.48 124.97 120.97 140.72 116.98 160.69 142.12 160.69 77.48" style="fill:#fff"/><path d="M489.55,592.72A32,32,0,0,1,508.44,584v-9.93h-27.3a30.53,30.53,0,0,0,8.42,18.67" transform="translate(-350.78 -350.78)" style="fill:#ffc627"/><path d="M508.44,601.89V590.13a25.45,25.45,0,0,0-14.24,6.47,32.19,32.19,0,0,0,14.24,5.29" transform="translate(-350.78 -350.78)" style="fill:#ffc627"/><path d="M514.59,541.14v11.65a24.82,24.82,0,0,0,14.14-6.47,30.7,30.7,0,0,0-14.14-5.18" transform="translate(-350.78 -350.78)" style="fill:#fff"/><path d="M533.48,550.42a31.25,31.25,0,0,1-18.89,8.63v9.06h27.3a31,31,0,0,0-8.42-17.7" transform="translate(-350.78 -350.78)" style="fill:#fff"/><path d="M508.44,552.79V541.14a29.26,29.26,0,0,0-14.14,5.29,26.07,26.07,0,0,0,14.14,6.37" transform="translate(-350.78 -350.78)" style="fill:#fff"/><path d="M514.59,574.05v9.82a30.78,30.78,0,0,1,18.89,8.74A30.64,30.64,0,0,0,542,574.05Z" transform="translate(-350.78 -350.78)" style="fill:#ffc627"/><path d="M481.24,568h27.3v-9.06a32.17,32.17,0,0,1-18.89-8.63,29.69,29.69,0,0,0-8.42,17.7" transform="translate(-350.78 -350.78)" style="fill:#fff"/><path d="M514.59,601.89a30.26,30.26,0,0,0,14.14-5.18,25.47,25.47,0,0,0-14.14-6.47Z" transform="translate(-350.78 -350.78)" style="fill:#ffc627"/><polygon points="278.2 148.49 282.09 155.07 272.49 164.03 284.9 159.39 288.78 166.08 289.43 158.53 297.63 158.09 290.94 154 299.25 140.83 285.54 151.94 278.2 148.49" style="fill:#ffc627"/><polygon points="43.49 148.38 39.71 154.97 49.21 163.92 36.8 159.28 32.91 165.97 32.27 158.42 23.96 157.99 30.76 153.89 22.45 140.72 36.15 151.84 43.49 148.38" style="fill:#ffc627"/><path d="M415.42,452.22l-19.21-13.6,4.32-6a19.9,19.9,0,0,1,2.48-2.7,7.09,7.09,0,0,1,1.83-1.29,1.49,1.49,0,0,0,.32-.43c.11-.11.11-.22.22-.32l.22-.43,16.94,12a13.5,13.5,0,0,1-.86,3.45,12.13,12.13,0,0,1-1.73,3l-.11.11Zm-12.09-17.37a1.64,1.64,0,0,0-.11,1.83l.32.32,11.76,8.42h0a1.54,1.54,0,0,0,1.62-.65l.11-.11a1.47,1.47,0,0,0-.11-2.05l-11.44-8.2a1.34,1.34,0,0,0-2.16.43Z" transform="translate(-350.78 -350.78)" style="fill:#fff"/><polygon points="93.13 70.58 82.12 53.85 81.04 54.6 79.1 51.48 91.3 43.49 93.24 46.51 87.3 50.5 90.65 55.47 95.29 52.45 96.37 55.68 92.38 58.27 96.26 63.99 102.3 60.11 104.25 63.13 93.13 70.58" style="fill:#fff"/><polygon points="138.89 50.61 134.14 42.73 133.6 42.84 135.43 51.37 129.82 52.45 125.83 32.91 124.64 33.13 123.89 29.57 129.82 28.49 135.32 36.26 135.76 36.15 133.92 27.63 139.53 26.44 144.39 49.42 138.89 50.61" style="fill:#fff"/><path d="M527.22,400l.54-23.85L533,377l-.76,14.57.54.11,4.32-14,5.29.86c-2.05,6.26-7.23,20.83-7.88,22.55Z" transform="translate(-350.78 -350.78)" style="fill:#fff"/><path d="M610.63,440.45l-1.29-1.73L602.65,444l-3.35-4.42L618,425.24l4.53,5.83a15.27,15.27,0,0,1,1.94,3.13c.32.65.65,1.4.86,1.94a1.49,1.49,0,0,0,.32.43l.22.22.32.32-9.93,7.66c-.54-.32-1.19-.65-1.73-1l-.22-.11-5.4,8.2-3.24-4.1Zm8.74-7.23a1.79,1.79,0,0,0-1.62-.76c-.11,0-.22.11-.32.22L613,436.14a1.37,1.37,0,0,0-.11,1.94v.11a1.54,1.54,0,0,0,1.94.65l4.53-3.35a1.56,1.56,0,0,0,0-2.27Z" transform="translate(-350.78 -350.78)" style="fill:#fff"/><polygon points="215.4 62.16 225.76 45 224.68 44.35 226.51 41.22 239.03 48.88 237.09 51.91 231.05 48.13 228.02 53.2 232.77 56.12 230.07 58.92 226.08 56.33 222.52 62.16 228.78 65.94 226.84 69.07 215.4 62.16" style="fill:#fff"/><path d="M472,645.38a11.73,11.73,0,0,1-3.56-1.62,15.71,15.71,0,0,1-2.91-2.16l6-20.07a13.68,13.68,0,0,1,3.67-.32,15.49,15.49,0,0,1,3.88.76,11.73,11.73,0,0,1,3.56,1.62c.54.32,1.08.65,1.51,1a2.17,2.17,0,0,0,.86.43c.11,0,.22.11.32.11l.54.11-.22.54-1.83,5.72-5.4-1.62.76-2.48a1.48,1.48,0,0,0-1-1.73c-.11,0-.22-.11-.32-.11a1.4,1.4,0,0,0-1.94.86l-4.42,14.35a1.52,1.52,0,0,0,.11,1,1.67,1.67,0,0,0,1.19.86,1.4,1.4,0,0,0,1.94-.86l1.94-6-1.73-1,1.83-2.91,6.37,1.94-3.67,12.19a13.68,13.68,0,0,1-3.67.32c-1.4-.32-2.81-.54-3.88-.86" transform="translate(-350.78 -350.78)" style="fill:#fff"/><path d="M518.91,650.67a15.67,15.67,0,0,1-3.88-.22,11.88,11.88,0,0,1-3.45-1.19l-1.19-20.94a10.55,10.55,0,0,1,3.35-1.51,16.25,16.25,0,0,1,3.88-.65,15.67,15.67,0,0,1,3.88.22,11.29,11.29,0,0,1,1.83.43,2.68,2.68,0,0,0,.86.11h.32l.54-.11v.54l.32,5.94-5.61.32-.11-2.59a1.44,1.44,0,0,0-1.51-1.29h-.32c-1,.11-1.73.76-1.62,1.51l.76,15a1.33,1.33,0,0,0,.43.86,2,2,0,0,0,1.4.43,1.5,1.5,0,0,0,1.62-1.51l-.32-6.37-1.94-.22.65-3.35,6.58-.32.76,12.73a10.55,10.55,0,0,1-3.35,1.51,22.45,22.45,0,0,1-3.88.65" transform="translate(-350.78 -350.78)" style="fill:#fff"/><path d="M429.55,623.69a16.61,16.61,0,0,1-2.81-2.7,10.75,10.75,0,0,1-1.94-3.13l11.44-14.68-1-.76,2.16-2.81,5.5,4.21-12,15.54a1.47,1.47,0,0,0,.54,2.05,1.51,1.51,0,0,0,2.16-.11l12.09-15.54,4.42,3.45-13.71,17.7a10.66,10.66,0,0,1-3.45-1.08,13.47,13.47,0,0,1-3.45-2.16" transform="translate(-350.78 -350.78)" style="fill:#fff"/><polygon points="248.1 268.6 235.15 253.38 231.69 256.41 229.21 253.6 240.54 243.89 243.03 246.69 239.57 249.72 252.41 264.82 248.1 268.6" style="fill:#fff"/><path d="M628,586.68a20.86,20.86,0,0,1-2.37,3,10.26,10.26,0,0,1-2.91,2.05l-4.86-3,2.91-4.75,2.48,1.62a1.28,1.28,0,0,0,1.08.11,1.72,1.72,0,0,0,1-.76v-.11a1.47,1.47,0,0,0-.32-2.05l-5.5-3.35-3.24,5.07c-.86,1.4-2.37,1.94-3.45,1.29a2.36,2.36,0,0,1-.54-.32l-7.66-4.86a11.1,11.1,0,0,1,.76-3.56,12.94,12.94,0,0,1,1.73-3.45,20.87,20.87,0,0,1,2.37-3,18.76,18.76,0,0,1,1.62-1.4,1.89,1.89,0,0,0,.43-.54.4.4,0,0,0,.11-.32l.22-.43,5.61,3.45-2.91,4.75-2.27-1.51a.4.4,0,0,0-.32-.11,1.75,1.75,0,0,0-1.73.86v.11a1.47,1.47,0,0,0,.32,2.05l3.88,2.37.11.11.22.11,3.13-5a2.94,2.94,0,0,1,3.67-1.4l1,.65.22.11,7.55,4.75a11.1,11.1,0,0,1-.76,3.56,9.76,9.76,0,0,1-1.51,3.88" transform="translate(-350.78 -350.78)" style="fill:#fff"/><polygon points="200.72 272.92 199.53 273.46 198.24 270.22 211.73 264.61 213.13 267.95 206.44 270.65 208.71 276.15 213.78 273.89 214.43 277.67 210 279.5 212.7 285.65 219.28 282.95 220.79 286.3 208.49 291.48 200.72 272.92" style="fill:#fff"/><polygon points="47.48 239.79 53.09 232.45 52.77 232.02 45.54 236.87 42.3 232.13 58.92 221.01 58.17 219.93 61.19 217.99 64.64 223.06 59.35 231.05 59.78 231.37 67.02 226.62 70.14 231.26 50.61 244.43 47.48 239.79" style="fill:#fff"/></svg>