<svg xmlns="http://www.w3.org/2000/svg" viewBox="0 0 288.3 288.3"><title>Indiana Pacers logo</title><path d="M656.15,512A144.15,144.15,0,1,1,512,367.85C591.68,367.95,656.15,432.52,656.15,512Z" transform="translate(-367.85 -367.85)" style="fill:#bec0c2"/><path d="M647.87,512A135.87,135.87,0,1,1,512,376.22,135.85,135.85,0,0,1,647.87,512Z" transform="translate(-367.85 -367.85)" style="fill:#002d62"/><path d="M512,382.48A129.48,129.48,0,1,0,641.43,512C641.52,440.6,583.5,382.48,512,382.48Z" transform="translate(-367.85 -367.85)" style="fill:#fdbb30"/><path d="M600.63,512c0,49.94-39.74,90.45-88.63,90.45S423.37,561.94,423.37,512,463,421.55,512,421.55,600.63,462.06,600.63,512Z" transform="translate(-367.85 -367.85)" style="fill:#002d62"/><path d="M594.95,512c0,46.77-37.14,84.58-82.95,84.58S429.05,558.67,429.05,512,466.2,427.42,512,427.42,594.95,465.33,594.95,512Z" transform="translate(-367.85 -367.85)" style="fill:#fff"/><polygon points="53.21 118.84 52.35 122.21 25.79 115.67 26.75 112.2 53.21 118.84" style="fill:#002d62"/><polygon points="56.87 78.14 68.32 86.89 66.3 89.49 44.75 72.94 45.8 71.4 61.49 75.54 49.65 66.49 51.67 63.8 73.23 80.35 72.17 81.99 56.87 78.14" style="fill:#002d62"/><path d="M466.77,424l1.44-.77a2.22,2.22,0,0,0,1.15-3.08c-2.79-5.58-4.91-9.43-7.7-15a2.14,2.14,0,0,0-3-1l-1.64.87Zm-14.15-19.92,5.39-2.69c2.31-1.15,5.2-1.06,6.64,1.73,3.37,6.74,5,9.62,8.37,16.26,1.35,2.69-.19,5.1-2.31,6.16l-5.58,2.79Z" transform="translate(-367.85 -367.85)" style="fill:#002d62"/><polygon points="140.78 47.92 137.32 48.11 135.78 20.88 139.34 20.69 140.78 47.92" style="fill:#002d62"/><path d="M552.13,404.42l-.19-.1-5.58,9.14,3.66,1.35ZM548.28,423l1.15-5.29L544.81,416l-2.69,4.72-3.18-1.25,14.53-23.67,3.37,1.25-5.2,27.23Z" transform="translate(-367.85 -367.85)" style="fill:#002d62"/><polygon points="220.94 65.82 210.45 75.64 208.24 73.33 228.06 54.56 229.22 55.81 222.77 70.73 233.64 60.53 235.86 62.84 216.03 81.6 214.78 80.16 220.94 65.82" style="fill:#002d62"/><path d="M619.29,475.63l-.1-.19-10.59,1.44,1.25,3.66Zm-16.84,8.76,4.81-2.41-1.54-4.72-5.39.87-1.06-3.27,27.52-3.66,1.15,3.37-24.35,13.18Z" transform="translate(-367.85 -367.85)" style="fill:#002d62"/><path d="M415.39,562.71l1.92,3.66,9.62-5.1L425,557.61Zm-11.84,6.16-1.64-3.08,24.15-12.61,3.95,7.7c.77,1.54.38,2.69-.77,3.27-4.33,2.21-6.54,3.37-10.78,5.68a2.19,2.19,0,0,1-3.18-1.06l-2.41-4.72Z" transform="translate(-367.85 -367.85)" style="fill:#002d62"/><path d="M448.87,595.62l-.19-.19-8,7,3,2.41Zm-9.33,16.65,2.6-4.72-3.85-3.08L434.34,608l-2.69-2.12,21-18.19,2.79,2.21-13,24.54Z" transform="translate(-367.85 -367.85)" style="fill:#002d62"/><path d="M487.94,624.39l3.37.87-1.73,7a2.11,2.11,0,0,1-2.6,1.64c-2.41-.58-4.14-1.06-6.64-1.64a2.16,2.16,0,0,1-1.64-2.69c2.12-8.66,3.27-13.47,5.49-22.13a2.11,2.11,0,0,1,2.6-1.64c2.41.58,4.23,1.06,6.74,1.64a2.18,2.18,0,0,1,1.54,2.69l-1.35,5.58-3.37-.77,1.15-4.91-4.14-1-5.1,20.79,4.14,1Z" transform="translate(-367.85 -367.85)" style="fill:#002d62"/><polygon points="170.23 265.88 161.47 267.51 156.76 240.67 165.42 239.13 165.9 242.01 160.6 242.88 162.15 251.73 167.15 250.77 167.63 253.75 162.72 254.62 164.36 263.95 169.65 263.09 170.23 265.88" style="fill:#002d62"/><path d="M578.21,616.6l-2.89,1.92-15.4-22.61,7.51-5.1a2,2,0,0,1,3.18.58c2.12,3.08,3.46,5.2,5.68,8.28a2.11,2.11,0,0,1-.58,3.18l-.38.29,9.91,8.56-3.18,2.21-11.26-9.72-.1-1.25L573,601.4l-5-7.22-3.66,2.5Z" transform="translate(-367.85 -367.85)" style="fill:#002d62"/><path d="M606,575.51l5.49,3.37,1.54-2.5-5.29-3.27-10.1.48a2.87,2.87,0,0,1-1.83-.38c-1.92-1.25-2.79-1.83-5-3.08a2.15,2.15,0,0,1-.67-3c1.06-1.73,1.92-3.08,3.08-4.91a2,2,0,0,1,3-.58l4.81,3-1.83,2.89-4.23-2.6-1.54,2.5,4.14,2.5,9.62-.58a3.88,3.88,0,0,1,2.41.48c2.5,1.64,3.37,2.12,6.06,3.75a2.12,2.12,0,0,1,.77,3c-1.06,1.73-1.92,3.08-3.08,4.91a2,2,0,0,1-3,.58l-6.06-3.75Z" transform="translate(-367.85 -367.85)" style="fill:#002d62"/><path d="M485.54,460.61,463.12,562.52h44.36s5-20.21,5.39-22.13h19.25c14.43.1,26.17-4.81,34.16-14.15,14.53-15.78,11.93-38.88,1.06-52a40.39,40.39,0,0,0-31.66-14.72H485.73Z" transform="translate(-367.85 -367.85)" style="fill:#bec0c2"/><path d="M509.69,536.35l-5.39,22.13H468.12l21-94.78h46.67A36.52,36.52,0,0,1,564.44,477c10.3,12.51,11.35,33.29-1.06,46.77-7.6,8.85-18.76,12.89-31.08,12.8Z" transform="translate(-367.85 -367.85)" style="fill:#002d62"/><path d="M484.19,485.34h20.5c2.31,0,4.91,1.92,3.75,5a29.4,29.4,0,0,0-1.44,6.06c-.19,1.54,1.54,2.5,2.5,2.5h41.67q1.15,0,1.15-.58a15.72,15.72,0,0,0-.19-2.69c-.19-.87-.29-1.06-1.06-1.06-5.2,0-7.31-2.31-12.8-5.87s-13.47-5.58-20.4-5.58H484.38Z" transform="translate(-367.85 -367.85)" style="fill:#fdbb30"/><path d="M509.5,512.29a29.12,29.12,0,0,1-1.83-5.1c-.48-2.12-2.31-3.85-5.58-3.85H480.15l.58-2.41,71.11.1c.67,0,.58.29.48,1.06s-.19,2.21-.29,3.08-.77.67-1.44.67c-1.64,0-4.62.38-6.35,1.73-2.89,2.21-9.24,6.16-12.8,7.22-3.75,1.15-17.9,5.49-21.94-2.5" transform="translate(-367.85 -367.85)" style="fill:#fdbb30"/><path d="M476.3,521.24h37.14a7.09,7.09,0,0,1,4.23,1.25,33.77,33.77,0,0,0,11.45,5.77c1.92.58,5.29-.19,8.28-1.83,7.41-4.23,12.12-12.12,13.86-17.32.38-1.35-.38-1.25-1.35-1.15-3.08.19-6.45,3-10.68,5.87-4.43,2.69-13.18,5.39-21.56,5.39H477Z" transform="translate(-367.85 -367.85)" style="fill:#fdbb30"/><path d="M530.76,471.49a8.36,8.36,0,0,1,3.37.19c7.12,2.79,13.76,10.1,16.55,17.9.58,1.54.67,2.41,0,2.5-3.18.38-4.72-1.25-8.56-3.75a46.62,46.62,0,0,0-12-5.87c-4.81-1.44-13.47-1.73-14.53-1.73s-1-.48-.48-1A30,30,0,0,1,530.76,471.49Z" transform="translate(-367.85 -367.85)" style="fill:#fdbb30"/><path d="M564.54,498.34a.72.72,0,0,1-.67.67h-8.18c-1.06,0-1.06-.48-1.06-1.06a18.92,18.92,0,0,1-.19-2.5c0-.67-.29-1.44.58-1.83a12.06,12.06,0,0,0,5.39-5.1c.29-.67.77-1.64,1.35-.77C563.77,490.73,564.35,494.49,564.54,498.34Z" transform="translate(-367.85 -367.85)" style="fill:#fdbb30"/><path d="M561.65,512.87c-.1.29-.67.48-.77,0a12.71,12.71,0,0,0-6-6.45c-.58-.29-.58-.67-.58-1.25s.29-2.41.38-3.18c0-.58.29-1.06.77-1.06H564c.29,0,.67.29.67.48A27,27,0,0,1,561.65,512.87Z" transform="translate(-367.85 -367.85)" style="fill:#fdbb30"/><path d="M539.62,528.74c-.58.1-1.92-.1.1-1.25,6.16-3.56,11.64-11.93,13.18-16.84.58-1.83.58-1.92,1.35-1.73A9,9,0,0,1,557.8,512c1.15,1.54,1.64,4.72,1,5.49A28.66,28.66,0,0,1,539.62,528.74Z" transform="translate(-367.85 -367.85)" style="fill:#fdbb30"/><path d="M555.3,490.83c-1.44.77-1.73.58-2-.48C550.59,481,542.7,474,539.43,472c-.58-.38-.48-.67,0-.58,7.7,1.06,15.3,5.29,19.05,11C560.79,485.63,556.65,490.06,555.3,490.83Z" transform="translate(-367.85 -367.85)" style="fill:#fdbb30"/></svg>