<svg xmlns="http://www.w3.org/2000/svg" viewBox="0 0 226.65 230"><title>Phoenix Suns logo</title><path d="M624.92,397.69a1.74,1.74,0,0,0-1.45-.69H481.35c-17,.07-27.33,7.33-30.93,21.73l-51.69,206a1.85,1.85,0,0,0,.35,1.59,1.74,1.74,0,0,0,1.45.69H555.32c8.86,0,17.78-7.06,19.79-15.71l50.17-211.94A2,2,0,0,0,624.92,397.69Z" transform="translate(-398.68 -397)" style="fill:#63727a"/><path d="M400.53,625.13H555.32c8,0,16.12-6.44,17.92-14.32L623.4,398.87H481.35c-13.15,0-25.19,4.36-29.13,20.34Z" transform="translate(-398.68 -397)"/><path d="M566.73,543.07H430.35l30-118.74c3.81-15.36,13.35-18.47,26.43-18.47H611.92l-28.65,124C581.61,537.19,574.14,543.07,566.73,543.07ZM432.5,541.41H566.73a16.1,16.1,0,0,0,14.95-11.9l28.23-122H486.74c-14.95,0-21.66,4.71-24.84,17.23Z" transform="translate(-398.68 -397)" style="fill:#63727a"/><polygon points="54.02 212.7 57.69 217.82 85.99 217.82 97.48 172.36 85.85 172.36 76.03 211.39 65.72 211.39 75.61 172.36 61.01 172.36 60.04 173.19 62.95 177.14 54.02 212.7" style="fill:#fff"/><polygon points="54.85 188.28 57.62 177.34 53.89 172.15 30.71 172.15 24.34 177.34 20.53 192.63 40.12 200.87 37.42 211.39 27.18 211.39 28.42 206.47 18.18 201.77 15.48 212.7 19.15 217.82 42.4 217.82 48.7 212.7 52.57 197.34 32.99 189.11 35.62 178.59 45.86 178.59 44.61 183.64 54.85 188.28" style="fill:#fff"/><polygon points="134.84 177.34 131.11 172.15 102.81 172.15 91.32 217.61 102.94 217.61 112.77 178.59 123.08 178.59 113.25 217.61 127.85 217.61 128.75 216.78 125.85 212.91 134.84 177.34" style="fill:#fff"/><polygon points="170.69 188.28 173.38 177.34 169.72 172.15 146.47 172.15 140.17 177.34 136.3 192.63 155.88 200.87 153.25 211.39 143.01 211.39 144.25 206.47 134.01 201.77 131.24 212.7 134.98 217.82 158.16 217.82 164.53 212.7 168.33 197.34 148.75 189.11 151.45 178.59 161.69 178.59 160.44 183.64 170.69 188.28" style="fill:#fff"/><polygon points="18.18 201.77 22.4 208.13 21.5 211.73 23.58 214.64 39.98 214.64 43.23 212.01 48.7 212.7 42.4 217.82 19.15 217.82 15.48 212.7 18.18 201.77" style="fill:#bec0c2"/><polygon points="37.42 211.39 43.23 212.01 46.55 199.07 26.76 190.77 30.01 177.97 24.34 177.34 20.53 192.63 40.12 200.87 37.42 211.39" style="fill:#bec0c2"/><polygon points="49.46 175.41 33.4 175.41 30.01 177.97 35.62 178.59 45.86 178.59 44.61 183.64 50.7 181.77 51.6 178.31 49.46 175.41" style="fill:#bec0c2"/><polygon points="134.01 201.77 138.16 208.13 137.26 211.73 139.41 214.64 155.74 214.64 159.06 212.01 164.53 212.7 158.16 217.82 134.98 217.82 131.24 212.7 134.01 201.77" style="fill:#bec0c2"/><polygon points="153.25 211.39 159.06 212.01 162.31 199.07 142.52 190.77 145.78 177.97 140.17 177.34 136.3 192.63 155.88 200.87 153.25 211.39" style="fill:#bec0c2"/><polygon points="165.22 175.41 149.17 175.41 145.78 177.97 151.45 178.59 161.69 178.59 160.44 183.64 166.53 181.77 167.36 178.31 165.22 175.41" style="fill:#bec0c2"/><polygon points="60.04 173.19 69.11 175.41 59.98 211.73 62.12 214.64 80.94 214.64 85.99 217.82 57.69 217.82 54.02 212.7 62.95 177.14 60.04 173.19" style="fill:#bec0c2"/><polygon points="85.85 172.36 90.9 175.41 80.94 214.64 76.03 211.39 85.85 172.36" style="fill:#bec0c2"/><polygon points="107.86 175.41 102.81 172.15 91.32 217.61 102.94 217.61 97.89 214.64 107.86 175.41" style="fill:#bec0c2"/><polygon points="119.69 214.64 128.89 178.24 126.75 175.41 107.86 175.41 112.77 178.59 123.08 178.59 113.25 217.61 127.85 217.61 128.75 216.78 119.69 214.64" style="fill:#bec0c2"/><path d="M429.24,550.06l-.28.28,1,1.25-2.91,12h4l.28-.28-1-1.18.76-3.25,6.23-1.94,1.31-5.26L437.34,550l-8.1.07Zm5.47,5.47-3,.9,1-4h2.77Z" transform="translate(-398.68 -397)" style="fill:#fff"/><polygon points="63.99 153.06 61.01 153.06 59.84 157.9 56.93 158.59 58.24 153.06 54.23 153.06 53.95 153.33 54.92 154.58 52.02 166.55 54.99 166.55 56.31 161.22 59.21 160.53 57.76 166.55 61.77 166.55 62.05 166.27 61.08 165.1 63.99 153.06" style="fill:#fff"/><path d="M479.34,550.06l-2,1.59-2.49,10.24,1.25,1.66h5.47l2-1.66,2.49-10.24-1.25-1.59Zm1.38,11.28H478l2.21-9.06h2.77Z" transform="translate(-398.68 -397)" style="fill:#fff"/><polygon points="133.87 154.65 132.63 153.06 125.43 153.06 122.11 166.55 125.09 166.55 127.85 155.27 130.76 155.27 127.99 166.55 132.07 166.55 132.35 166.27 131.31 165.1 133.87 154.65" style="fill:#fff"/><polygon points="152.56 153.06 148.54 153.06 148.27 153.33 149.24 154.58 146.26 166.55 150.34 166.55 150.62 166.27 149.65 165.1 152.56 153.06" style="fill:#fff"/><polygon points="174.21 165.16 172.62 159.91 177.95 153.06 175.04 153.06 171.93 157.21 170.89 153.06 166.88 153.06 166.53 153.26 168.19 154.51 169.72 159.98 164.66 166.55 167.57 166.55 170.55 162.54 171.51 166.55 175.6 166.55 175.87 166.27 174.21 165.16" style="fill:#fff"/><polygon points="106.54 164.34 103.01 164.34 103.84 160.88 106.75 160.88 107.3 158.66 104.4 158.66 105.23 155.27 108.48 155.27 109.31 156.45 109.66 156.24 110.42 153.06 101.77 153.06 101.49 153.33 102.39 154.58 99.48 166.55 107.37 166.55 108.13 163.37 107.93 163.16 106.54 164.34" style="fill:#fff"/><path d="M543.34,509.44" transform="translate(-398.68 -397)" style="fill:none"/><polygon points="37.42 142.26 114.08 100.26 62.12 142.26 125.22 106 124.19 113.27 134.7 107.46 158.51 129.95 171.17 91.89 189.44 90.71 180.09 67.67 196.7 54.66 175.25 46.36 180.72 23.25 162.45 31.62 153.04 11.76 138.44 26.36 112.15 14.6 108.55 38.06 85.09 43.11 98.93 51.48 85.02 58.47 96.86 59.51 48.07 97.42 97.13 71.41 44.55 111.47 100.52 82.27 40.74 127.25 106.68 92.1 37.42 142.26" style="fill:#f9a01b"/><path d="M576.49,465a38.19,38.19,0,1,1-36.6-39.72A38.24,38.24,0,0,1,576.49,465Z" transform="translate(-398.68 -397)" style="fill:#e56020"/><path d="M543,496.36a38.17,38.17,0,0,1-25.88-64.7A38.2,38.2,0,1,0,565.76,490,38.41,38.41,0,0,1,543,496.36Z" transform="translate(-398.68 -397)" style="fill:#b95915"/><path d="M576.49,463.84c0-1.38-.07-2.7-.14-4.08a18.14,18.14,0,0,0-8-3.11,15.82,15.82,0,0,0-1.73-.14,46,46,0,0,0-1.73-7.4c.42,0,.76.07,1.18.07,2.7.21,5.33.48,8,.9-.35-1-.76-1.94-1.18-2.84-2.91-.42-6-.76-8.93-1h0a42,42,0,0,0-3.53-7.06,10.29,10.29,0,0,0,5.12-2.56,16.28,16.28,0,0,0-2.28-2.08,8.26,8.26,0,0,1-4.64,1.94c-.28-.42-.55-.76-.83-1.18a43.21,43.21,0,0,0-8.86-8.58,38.77,38.77,0,0,0-9-1.45h-.48a36.41,36.41,0,0,1,15.15,11.28,80.07,80.07,0,0,1-13.08-3c-1.31-.42-2.63-.76-3.94-1.11-7.75-2.15-13.63-2.49-18.13-2.08a39.85,39.85,0,0,0-8.93,7c4.77-2,14.53-5.47,26.29-2.15,1.25.35,2.56.69,3.87,1.11,5.19,1.52,11.07,3.25,16.05,3.32a40.44,40.44,0,0,1,3.6,6.57c-1-.07-2-.07-3-.07-24.49-.42-45.53,6.92-57.22,18.61a43.26,43.26,0,0,0,.76,6.78,43.39,43.39,0,0,1,14.46-12.52c11.9-6.64,27.61-10.17,44.35-9.89a14.46,14.46,0,0,1,1.73.07,45.41,45.41,0,0,1,1.87,7.47c-10.79.48-17.78,7.2-25.81,14.32-7.2,6.44-16,12.87-28.85,16.74a37.62,37.62,0,0,0,3.94,4.15c12.11-4.91,20.14-12.45,27-18.54,7.75-6.92,14.32-13.56,24.08-13.84a40.93,40.93,0,0,1,0,8.23c-1.31,14.95-10,27.68-21.8,33.9a36.21,36.21,0,0,0,8.72-1.87,31,31,0,0,0,2.77-2.49,47,47,0,0,0,13.56-29.27,42.31,42.31,0,0,0,0-8.37,10.5,10.5,0,0,1,1.45.21A14,14,0,0,1,576.49,463.84Z" transform="translate(-398.68 -397)"/></svg>